<?xml version="1.0" encoding="UTF-8"?>
<svg version="1.1" xmlns="http://www.w3.org/2000/svg" width="512" height="512">
<path d="M0 0 C0.87783142 -0.00761353 1.75566284 -0.01522705 2.66009521 -0.02307129 C4.51246306 -0.03384254 6.36489149 -0.03673752 8.21728516 -0.03222656 C11.02481738 -0.03125761 13.82958286 -0.07284096 16.63671875 -0.1171875 C34.69347399 -0.24052558 34.69347399 -0.24052558 41.796875 5.46875 C44.05078125 7.8203125 44.05078125 7.8203125 45.359375 10.09375 C45.81441406 10.84914063 46.26945313 11.60453125 46.73828125 12.3828125 C48.4514673 15.75861085 48.87343788 18.14473094 48.62109375 21.85546875 C48.32811764 29.75308843 48.32811764 29.75308843 49.796875 37.46875 C53.45566662 41.11199434 56.83186494 42.38482832 61.63447571 44.22628784 C63.796875 45.46875 63.796875 45.46875 65.83659363 47.80715942 C71.56332058 54.12179372 76.48007933 56.07611997 84.99478626 56.64672661 C90.68632525 56.83315921 96.36737504 56.86731383 102.06148911 56.81200504 C105.5232485 56.78642912 108.98476144 56.81023755 112.4465332 56.8258667 C118.25683816 56.84398701 124.06586617 56.82028168 129.87597656 56.77246094 C136.5639635 56.71804537 143.24890115 56.7356794 149.93681431 56.79072499 C155.71070717 56.83631916 161.48368974 56.84240673 167.25770473 56.8163383 C170.69238088 56.80086212 174.12563056 56.79834198 177.56021118 56.83170319 C194.6102707 57.6771329 194.6102707 57.6771329 209.30395508 50.51220703 C210.81646604 48.84442129 212.3168873 47.16546303 213.796875 45.46875 C215.95927429 44.22628784 215.95927429 44.22628784 217.99609375 43.4453125 C222.21933857 41.80898248 224.56301956 40.67960504 227.796875 37.46875 C229.27145845 32.5027912 228.92962552 27.45983833 228.6796875 22.34375 C228.49320173 15.94527194 231.08315777 11.56329328 235.046875 6.71875 C241.41747913 1.50643753 247.07736019 -0.1465361 255.23046875 -0.09765625 C256.10784195 -0.10385483 256.98521515 -0.11005341 257.88917542 -0.11643982 C259.73380431 -0.1235032 261.57849742 -0.12042525 263.4230957 -0.10766602 C266.22402856 -0.09380122 269.02161407 -0.12791988 271.82226562 -0.16601562 C289.58667979 -0.24535558 289.58667979 -0.24535558 295.796875 5.46875 C297.953125 7.8203125 297.953125 7.8203125 299.296875 10.09375 C299.7609375 10.84914063 300.225 11.60453125 300.703125 12.3828125 C302.42921168 15.67470637 302.91908176 18.25994226 302.89453125 21.91796875 C302.89130859 22.76552734 302.88808594 23.61308594 302.88476562 24.48632812 C302.87638672 25.36740234 302.86800781 26.24847656 302.859375 27.15625 C302.85486328 28.04892578 302.85035156 28.94160156 302.84570312 29.86132812 C302.83392483 32.06386987 302.81747664 34.26627599 302.796875 36.46875 C303.64121094 36.71882813 304.48554688 36.96890625 305.35546875 37.2265625 C328.17864339 45.4646664 343.7439367 65.38747377 354.234375 86.33984375 C357.17560192 93.11385701 358.62787635 100.02316974 359.98925781 107.24926758 C360.20119907 108.36446431 360.41314034 109.47966105 360.63150406 110.62865162 C363.84387408 127.78576909 366.65956855 145.01466098 369.53071499 162.23135352 C370.38085546 167.32524142 371.2345074 172.41854097 372.08770752 177.51191711 C373.51514797 186.03632404 374.94028469 194.56111332 376.36376953 203.08618164 C378.18900841 214.01724726 380.01796195 224.94768794 381.8481102 235.87793255 C383.42907967 245.32006401 385.0085687 254.76244302 386.58771229 264.20488 C387.09266287 267.22396884 387.59777705 270.24303028 388.10289764 273.26209068 C388.89504492 277.99737106 389.68627237 282.7328043 390.47678947 287.46835709 C390.7663489 289.2022107 391.05618561 290.93601802 391.34632301 292.66977501 C391.74278828 295.03925768 392.13822005 297.40891061 392.53338623 299.77861023 C392.64768219 300.46031066 392.76197814 301.14201109 392.87973762 301.84436911 C396.12306263 321.33388573 395.99349181 339.38717179 384.796875 356.46875 C374.7620178 370.02551326 360.58304788 379.76599193 343.796875 382.46875 C325.99209986 383.9863977 309.38613507 381.23428263 294.9921875 370.06884766 C282.8161602 359.7699579 276.91104079 347.36259027 271.796875 332.53125 C271.49346191 331.65533203 271.19004883 330.77941406 270.87744141 329.87695312 C269.14517553 324.53656379 268.34908361 320.08480036 268.796875 314.46875 C270.296875 311.96875 270.296875 311.96875 272.796875 310.46875 C275.70585073 309.95953292 277.77814456 310.13333551 280.796875 310.46875 C284.04457875 312.78875022 284.84164085 315.87952753 286.06640625 319.5703125 C286.48083984 320.78332031 286.89527344 321.99632812 287.32226562 323.24609375 C288.17494906 325.7857129 289.01850576 328.32816323 289.86132812 330.87109375 C294.54128998 344.52879444 300.79918017 354.73816113 313.921875 361.34375 C324.56314097 366.53631523 336.86363473 367.36604872 348.234375 363.84375 C360.4014679 359.11850553 369.38443198 350.85204281 374.83203125 338.9296875 C380.30234324 324.97706987 377.27304486 310.60653589 374.83105469 296.32397461 C374.51159856 294.41230845 374.19299315 292.50049998 373.87516785 290.58856201 C373.01398912 285.42341498 372.14070183 280.26038322 371.26494122 275.0976913 C370.34600861 269.66914244 369.4376346 264.2388263 368.52789307 258.80873108 C366.9976876 249.68459964 365.4600621 240.56174405 363.91748047 231.43969727 C362.14166745 220.93817758 360.37528074 210.4351089 358.61452365 199.93105501 C356.7311759 188.69589093 354.84175192 177.46175536 352.95011234 166.22798467 C352.40975551 163.01692518 351.87041053 159.80569708 351.33126068 156.59443474 C350.47815346 151.51543075 349.62086895 146.43714752 348.76055336 141.35935974 C348.44806518 139.51150168 348.13684175 137.66342914 347.82708549 135.81511116 C346.27692101 126.57084917 344.63451815 117.35386056 342.7432251 108.17262268 C342.58789928 107.40478043 342.43257347 106.63693819 342.27254081 105.845828 C338.03485758 85.76761047 325.8028159 69.36231049 308.90844727 58.10644531 C291.791867 47.25723109 271.32717533 43.79304994 251.484375 47.65625 C240.28347764 50.40847049 230.50617393 55.32698886 220.796875 61.46875 C220.04664063 61.85933594 219.29640625 62.24992187 218.5234375 62.65234375 C216.18385979 64.10861151 215.12597609 65.02843324 213.796875 67.46875 C213.19887253 71.79881166 213.03645461 76.02693579 212.94921875 80.390625 C212.7817004 87.44234976 210.37350278 92.64970529 205.61328125 97.86328125 C200.65364532 102.24695946 194.44815509 105.54011486 187.77197266 105.66162109 C186.96748688 105.67768402 186.1630011 105.69374695 185.33413696 105.71029663 C181.66547663 105.75489742 177.99699305 105.79579261 174.328125 105.81884766 C172.39408343 105.83541959 170.46010341 105.86272593 168.52636719 105.90087891 C165.73340189 105.95567096 162.94186797 105.97752242 160.1484375 105.9921875 C159.28683014 106.01485687 158.42522278 106.03752625 157.5375061 106.06088257 C153.13358967 106.04540221 151.35036733 105.89498435 147.75146484 103.12353516 C145.796875 100.46875 145.796875 100.46875 145.171875 97.46875 C146.02939087 93.35267382 147.49941793 92.05186538 150.796875 89.46875 C153.67960895 88.77541179 156.46825526 88.81728 159.421875 88.8671875 C160.6586499 88.85517807 160.6586499 88.85517807 161.92041016 88.84292603 C164.54640239 88.81990572 167.17084187 88.82930007 169.796875 88.84375 C172.4226168 88.84760289 175.04767457 88.84411794 177.67333984 88.82315063 C179.30383239 88.81110197 180.93451728 88.81366422 182.56494141 88.83285522 C187.15078556 88.81033058 190.21939757 88.43407013 193.796875 85.46875 C196.38951276 80.85965008 196.38951276 80.85965008 196.796875 72.46875 C158.516875 72.46875 120.236875 72.46875 80.796875 72.46875 C81.2633436 80.47166294 81.2633436 80.47166294 84.796875 86.46875 C88.60273129 89.16493417 92.8559749 88.73027018 97.32421875 88.70703125 C99.02019032 88.72244776 100.71615402 88.73875116 102.41210938 88.75585938 C105.07626756 88.77232148 107.73984778 88.78123549 110.40405273 88.77416992 C112.98226862 88.77154809 115.55873658 88.79967598 118.13671875 88.83203125 C119.3259922 88.81672112 119.3259922 88.81672112 120.53929138 88.80110168 C124.76322303 88.87562207 126.35482668 89.12239434 129.79907227 91.82104492 C131.796875 94.46875 131.796875 94.46875 132.421875 97.46875 C131.56070406 101.60237049 130.12477084 102.88762113 126.796875 105.46875 C123.74445235 106.18410553 120.78022339 106.1468008 117.65625 106.09765625 C116.77463196 106.10006821 115.89301392 106.10248016 114.98468018 106.10496521 C113.12206521 106.10398766 111.25942087 106.09061589 109.39697266 106.06567383 C106.56961308 106.03152463 103.74541026 106.04497903 100.91796875 106.06445312 C99.10154937 106.05754922 97.28513799 106.04787192 95.46875 106.03515625 C94.63406189 106.04011612 93.79937378 106.04507599 92.93939209 106.05018616 C84.4715641 105.88340268 77.54039155 102.8317176 71.30078125 97.11328125 C66.14045377 91.47042964 64.75175058 85.94693782 64.86474609 78.47827148 C64.87200148 71.28185166 64.87200148 71.28185166 62.03515625 64.85546875 C59.41041394 62.69059864 56.78844342 61.09135881 53.796875 59.46875 C52.62610985 58.76942272 51.45690114 58.06748477 50.2890625 57.36328125 C32.22229449 46.81658182 11.45573318 43.48614485 -8.93359375 48.49609375 C-29.88616084 54.72929471 -46.12011308 66.75707193 -57.0390625 85.64453125 C-63.86327778 98.3571517 -66.3626233 112.10476098 -68.57150459 126.23053551 C-68.90567552 128.36412177 -69.24954066 130.4959654 -69.59568787 132.62763977 C-70.57576466 138.67376343 -71.53873299 144.72257468 -72.49682617 150.7722168 C-73.08904213 154.50740923 -73.6915811 158.24082227 -74.30024529 161.97336769 C-74.52797474 163.38365527 -74.75164077 164.79460561 -74.97104073 166.206213 C-75.27646623 168.17114438 -75.5960701 170.13385595 -75.91625977 172.09643555 C-76.09294693 173.20955612 -76.26963409 174.3226767 -76.45167542 175.4695282 C-77.24415388 178.63250645 -78.31428482 180.82213457 -80.203125 183.46875 C-83.05636937 184.89537219 -85.03767049 184.77908868 -88.203125 184.46875 C-91.078125 183.09375 -91.078125 183.09375 -93.203125 180.46875 C-94.41392851 172.33893142 -92.31708594 163.79125951 -90.9375 155.80078125 C-90.69994761 154.3937784 -90.46291792 152.9866872 -90.22637939 151.57951355 C-89.73057133 148.64119558 -89.22900773 145.70393708 -88.72314453 142.76733398 C-88.08302813 139.04909265 -87.45650697 135.32871961 -86.83431625 131.6074419 C-86.34709422 128.70216263 -85.85286155 125.79810761 -85.35663605 122.89435387 C-85.12345593 121.52550874 -84.89222868 120.15632913 -84.66320038 118.78678322 C-80.39239583 93.34047841 -80.39239583 93.34047841 -74.390625 82.15625 C-74.04443115 81.49093262 -73.6982373 80.82561523 -73.34155273 80.14013672 C-63.4144766 61.44773599 -46.80258803 43.33523768 -26.203125 36.46875 C-26.18894531 35.21320313 -26.17476563 33.95765625 -26.16015625 32.6640625 C-25.69587213 12.96149713 -25.69587213 12.96149713 -17.765625 5.03125 C-11.53689466 1.23324369 -7.20178783 0.00173826 0 0 Z M-7.65917969 18.32714844 C-9.67132705 21.11819155 -9.61518011 22.81559279 -9.453125 26.21875 C-9.41703125 27.20359375 -9.3809375 28.1884375 -9.34375 29.203125 C-9.29734375 29.95078125 -9.2509375 30.6984375 -9.203125 31.46875 C-7.285 31.22125 -7.285 31.22125 -5.328125 30.96875 C7.5079859 29.71422925 20.10868626 30.18406007 32.796875 32.46875 C32.90529451 30.55333862 32.98265579 28.63615227 33.046875 26.71875 C33.09328125 25.65140625 33.1396875 24.5840625 33.1875 23.484375 C33.03525036 20.44253968 33.03525036 20.44253968 31.25292969 18.31347656 C27.94998682 15.83265785 25.08239846 15.89222402 21.109375 15.9375 C20.36985596 15.9336731 19.63033691 15.92984619 18.8684082 15.92590332 C17.3084171 15.92318729 15.74838022 15.93052708 14.18847656 15.94726562 C11.80430314 15.96868327 9.42314251 15.94745737 7.0390625 15.921875 C5.5208267 15.92451834 4.00259277 15.92964344 2.484375 15.9375 C1.77385986 15.92940308 1.06334473 15.92130615 0.33129883 15.91296387 C-3.07670805 15.97733962 -4.90907633 16.24625512 -7.65917969 18.32714844 Z M246.34082031 18.31347656 C244.25048381 21.23148583 244.39258984 23.17019123 244.546875 26.71875 C244.58296875 27.79640625 244.6190625 28.8740625 244.65625 29.984375 C244.70265625 30.80421875 244.7490625 31.6240625 244.796875 32.46875 C245.59867187 32.324375 246.40046875 32.18 247.2265625 32.03125 C260.39763832 29.88087027 273.55576599 29.76021981 286.796875 31.46875 C286.90540991 29.72013208 286.98270928 27.96955759 287.046875 26.21875 C287.09328125 25.24421875 287.1396875 24.2696875 287.1875 23.265625 C286.67475551 19.59437448 285.73866535 18.6946852 282.796875 16.46875 C280.09492542 16.0705205 277.80772928 15.90674996 275.109375 15.9375 C274.36985596 15.9336731 273.63033691 15.92984619 272.8684082 15.92590332 C271.3084171 15.92318729 269.74838022 15.93052708 268.18847656 15.94726562 C265.80430314 15.96868327 263.42314251 15.94745737 261.0390625 15.921875 C259.5208267 15.92451834 258.00259277 15.92964344 256.484375 15.9375 C255.77385986 15.92940308 255.06334473 15.92130615 254.33129883 15.91296387 C250.93278025 15.97716039 249.08996154 16.24861462 246.34082031 18.31347656 Z " fill="#FFFFFF" transform="translate(117.203125,64.53125)"/>
<path d="M0 0 C1.9375 1.0625 1.9375 1.0625 3 3 C4.36507821 9.11774969 3.56089187 14.30766024 2.46118164 20.42651367 C2.2857634 21.4518924 2.11034515 22.47727112 1.92961121 23.53372192 C1.54852969 25.75306077 1.16254839 27.97156269 0.77220345 30.189291 C0.15321601 33.70741483 -0.45248183 37.22760225 -1.05482483 40.74861145 C-2.33720088 48.23031072 -3.63635168 55.70904597 -4.9375 63.1875 C-6.44236239 71.84014569 -7.94021609 80.49390105 -9.42178535 89.15056801 C-10.01631542 92.60391041 -10.62284952 96.0550008 -11.22996521 99.50614929 C-11.59781798 101.64617134 -11.96512027 103.78628811 -12.33178711 105.92651367 C-12.58661362 107.34609627 -12.58661362 107.34609627 -12.84658813 108.7943573 C-15.47358728 124.3724233 -13.82935062 137.65185436 -5 151 C1.53414189 159.34384295 11.53871289 165.30814764 22 167 C36.78677498 168.08416273 48.39357598 165.64069669 60.1953125 156.25390625 C71.29327452 146.10538965 74.90521263 130.1741086 79.5 116.375 C80.19740283 114.30521829 80.8956577 112.2357235 81.59472656 110.16650391 C84.78458387 100.70563356 87.93207764 91.23123794 91.03662109 81.74203491 C92.30319487 77.87112804 93.57586701 74.00223321 94.84790039 70.13311768 C95.73482011 67.42141165 96.60900988 64.70582762 97.48242188 61.98974609 C98.02425377 60.33415082 98.56654554 58.67870596 99.109375 57.0234375 C99.46156097 55.90787476 99.46156097 55.90787476 99.82086182 54.76977539 C101.24295814 50.48059177 102.88166915 47.28623798 106 44 C108.62420895 42.76372643 110.12520471 42.69234186 112.86181641 43.65478516 C115.05281959 44.63910383 117.18131243 45.70473232 119.3125 46.8125 C131.20757503 52.90354378 142.51231835 55.10382499 155.6875 51.375 C162.05677361 49.19300518 168.62438165 46.38779428 173.44940758 41.54536438 C178.14620647 36.94649242 181.57758634 36.11370773 188.03369141 36.16015625 C188.91116028 36.14321716 189.78862915 36.12627808 190.69268799 36.10882568 C193.57957769 36.06221768 196.46432573 36.06003827 199.3515625 36.0625 C201.37308591 36.0482829 203.39460132 36.03288288 205.41610718 36.01635742 C209.65116795 35.98949451 213.88548347 35.98631476 218.12060547 35.99804688 C223.51819163 36.00980544 228.91215838 35.94880733 234.30904579 35.86781311 C238.48569611 35.81580154 242.66149141 35.8103274 246.83842087 35.81759644 C248.82618643 35.81423432 250.81399588 35.79514543 252.80144119 35.75930786 C264.695633 35.56851024 272.3785097 36.22099501 281.26498413 44.55517578 C289.31762754 51.75341468 300.04164573 53.38310337 310.46484375 53.27734375 C319.94920527 52.53326677 328.13358296 48.73800833 336.24609375 43.9765625 C339 43 339 43 342.16015625 43.5859375 C347.2706688 46.13064939 348.56158712 50.09292098 350.32194519 55.24545288 C350.59082047 56.05906281 350.85969574 56.87267273 351.13671875 57.7109375 C351.42102249 58.55669342 351.70532623 59.40244934 351.99824524 60.27383423 C352.5960778 62.05956303 353.19008668 63.8465759 353.78051758 65.63476562 C354.68330118 68.36231425 355.60349951 71.08354641 356.52539062 73.8046875 C357.10523044 75.54391654 357.68404086 77.28348919 358.26171875 79.0234375 C358.53666672 79.83299896 358.81161469 80.64256042 359.09489441 81.47665405 C360.48998211 85.74924155 361.52827556 89.44876814 361 94 C358.54405875 97.32274404 357.0743356 98.77618008 353 99.625 C348.96917791 98.7852454 347.67167961 97.09196462 345 94 C343.60620117 91.00146484 343.60620117 91.00146484 342.54296875 87.7109375 C341.95805664 85.92816406 341.95805664 85.92816406 341.36132812 84.109375 C340.97396484 82.87703125 340.58660156 81.6446875 340.1875 80.375 C339.78080078 79.13492188 339.37410156 77.89484375 338.95507812 76.6171875 C336 67.47879464 336 67.47879464 336 64 C334.98679687 64.34933594 333.97359375 64.69867188 332.9296875 65.05859375 C331.57820771 65.51847229 330.22664053 65.97809409 328.875 66.4375 C328.20984375 66.66759766 327.5446875 66.89769531 326.859375 67.13476562 C311.65697944 72.27675236 294.84024015 71.17022763 280.3125 64.3515625 C275.87348193 62.04125537 271.94236371 59.90323304 268.31343079 56.42498779 C264.83773549 53.51768001 261.53200626 53.27804307 257.11791992 53.32128906 C255.96786217 53.30332779 255.96786217 53.30332779 254.79457092 53.28500366 C252.2726835 53.25293575 249.75252506 53.25762294 247.23046875 53.265625 C245.46697908 53.25716938 243.70349474 53.24752744 241.9400177 53.23675537 C238.24716535 53.220381 234.55491263 53.22305665 230.86206055 53.23828125 C226.14732896 53.25554054 221.43482995 53.21846752 216.7204237 53.16601944 C213.07842036 53.13280913 209.43694682 53.13235936 205.7948246 53.14116669 C204.05779683 53.14080849 202.32073409 53.12962138 200.58385277 53.10706329 C189.41821788 52.76854758 189.41821788 52.76854758 179.56860352 57.43554688 C178.36703598 58.61152761 177.17567757 59.79813582 176 61 C159.74100557 70.41310204 142.38163935 72.31290795 124.3659668 67.59936523 C120.81159075 66.61226631 117.39398874 65.4434205 114 64 C113.77723389 65.15145508 113.55446777 66.30291016 113.32495117 67.48925781 C111.67897111 74.86866178 109.17723993 82.0032379 106.80078125 89.171875 C106.28228636 90.7421143 105.76382901 92.312366 105.2454071 93.88262939 C104.16022164 97.16506841 103.07106708 100.44616193 101.97973633 103.7265625 C100.59468262 107.89256255 99.22495059 112.06342583 97.85892963 116.2356987 C96.7938025 119.47988808 95.71765531 122.72034719 94.63863182 125.95993805 C94.12961847 127.49412419 93.62450473 129.02961076 93.12368202 130.56649017 C88.44897772 144.88675311 82.90370938 157.2108655 72 168 C71.39800781 168.63550781 70.79601562 169.27101563 70.17578125 169.92578125 C66.11413143 173.89932587 61.64807384 176.39455112 56.5625 178.8125 C55.64960205 179.24792114 55.64960205 179.24792114 54.71826172 179.69213867 C41.59482545 185.59542053 24.52961668 186.26321239 10.79296875 182.09765625 C-5.64914819 175.63578931 -19.0841087 164.25481321 -26.375 148 C-33.93313861 128.91980769 -30.5116134 110.81811455 -27.16796875 91.15625 C-26.77078567 88.77320541 -26.37442239 86.39002404 -25.97883606 84.00671387 C-25.15171275 79.03993246 -24.31622515 74.07465584 -23.47436523 69.11035156 C-22.39736988 62.75664068 -21.33929404 56.39995416 -20.28711987 50.04209137 C-19.47283387 45.1321545 -18.64975931 40.2237232 -17.82390785 35.3157196 C-17.4303668 32.97182472 -17.03927628 30.62751699 -16.65071678 28.28279114 C-16.10686331 25.01054683 -15.55147415 21.74046578 -14.99291992 18.47070312 C-14.83539246 17.50955597 -14.67786499 16.54840881 -14.51556396 15.55813599 C-13.60444164 10.30690782 -12.45194867 5.75224173 -10 1 C-6.81051517 -0.59474241 -3.47042511 -0.37691092 0 0 Z " fill="#FFFFFF" transform="translate(31,263)"/>
<path d="M0 0 C7.02682574 3.69085796 11.25022004 8.59404169 13.828125 16.125 C14.5020046 18.82051841 14.5272689 21.3343313 14.3203125 24.09375 C15.2690625 23.990625 16.2178125 23.8875 17.1953125 23.78125 C23.06868148 23.79318774 28.5828504 26.72691816 32.96484375 30.515625 C38.20983218 36.41029477 39.92405323 42.61452081 39.66015625 50.3203125 C38.71018001 58.07299214 35.24331089 62.79017907 29.3203125 67.68359375 C25.74949047 70.20130225 22.9346021 71.33366562 18.5703125 71.71875 C17.37148437 71.83089844 17.37148437 71.83089844 16.1484375 71.9453125 C15.54515625 71.99429688 14.941875 72.04328125 14.3203125 72.09375 C14.29453125 72.66222656 14.26875 73.23070312 14.2421875 73.81640625 C13.69084281 81.32221231 11.62668559 86.15580024 6.1328125 91.34375 C0.5171359 95.79098434 -5.10483437 97.4195213 -12.2421875 97.09375 C-19.2561809 96.18144037 -23.57262625 93.20081125 -28.4921875 88.28125 C-31.92333069 83.28158421 -34.2598168 78.28179592 -33.6796875 72.09375 C-34.2365625 72.07957031 -34.7934375 72.06539063 -35.3671875 72.05078125 C-42.95738129 71.57639414 -48.39187884 68.89760113 -53.4921875 63.21875 C-58.1155659 56.61392371 -59.58898284 51.02828607 -58.6796875 43.09375 C-57.18634612 36.55314629 -54.06938463 31.27489637 -48.37890625 27.61328125 C-43.27666276 24.84924343 -39.47093406 23.46426668 -33.6796875 24.09375 C-33.67710938 23.47628906 -33.67453125 22.85882813 -33.671875 22.22265625 C-33.34873543 15.14589973 -31.50039518 10.3385972 -26.6796875 5.09375 C-18.96844797 -1.00249408 -9.55483496 -3.23137275 0 0 Z M-17.6796875 20.09375 C-18.42149382 23.78849691 -18.42149382 23.78849691 -18.3671875 27.71875 C-18.49979867 34.82391675 -18.49979867 34.82391675 -20.6796875 38.09375 C-24.10622206 39.23592819 -26.94721327 39.23697486 -30.5546875 39.34375 C-36.27238511 39.56521501 -36.27238511 39.56521501 -41.1171875 42.21875 C-42.96818513 45.07922564 -42.96818513 45.07922564 -42.6796875 48.71875 C-41.54673087 52.57595462 -41.54673087 52.57595462 -38.6796875 55.09375 C-34.96689281 56.33134823 -31.36662404 56.44983897 -27.4921875 56.65625 C-26.36780273 56.72102539 -26.36780273 56.72102539 -25.22070312 56.78710938 C-23.37390375 56.89297685 -21.52681916 56.9938476 -19.6796875 57.09375 C-18.12764774 61.74986928 -18.39356415 66.54647694 -18.25390625 71.4296875 C-17.60953772 75.54137243 -16.62912833 77.21427765 -13.6796875 80.09375 C-10.78262043 81.34052006 -10.78262043 81.34052006 -7.6796875 81.09375 C-4.93252363 79.32335551 -3.14822828 78.03083156 -1.6796875 75.09375 C-1.48144939 71.92561128 -1.33405225 68.76476941 -1.25 65.59179688 C-1.11971068 62.82043449 -0.96170866 60.58728704 0.4296875 58.15234375 C3.30738681 56.54106996 5.92458639 56.67672825 9.1953125 56.59375 C14.16342428 56.4671739 17.31042239 56.14069159 21.3203125 53.09375 C23.66554185 50.20862022 23.66554185 50.20862022 23.1953125 46.59375 C22.64248236 43.14992704 22.64248236 43.14992704 20.703125 41.41015625 C17.51545295 39.64909809 14.94488126 39.65027715 11.3203125 39.53125 C3.52545212 39.25876018 3.52545212 39.25876018 0.3203125 37.09375 C-1.58487271 33.28337959 -0.92512059 28.01439065 -1.0078125 23.79296875 C-1.81926593 19.32525715 -3.14176925 17.85186082 -6.6796875 15.09375 C-12.18720557 13.9463504 -14.29175676 15.86866888 -17.6796875 20.09375 Z " fill="#FFFFFF" transform="translate(137.6796875,141.90625)"/>
<path d="M0 0 C7.51088522 6.16044323 12.00359284 13.50268657 13.06640625 23.19921875 C13.43182399 32.40538837 10.91835708 40.37568659 5.296875 47.71484375 C-0.08750355 53.2759822 -6.85511762 56.91577557 -14.58203125 57.61328125 C-26.45292147 57.65325058 -33.27706703 56.17291599 -42.01171875 47.859375 C-48.34417821 40.65385394 -50.6574374 32.73163529 -50.51953125 23.31640625 C-49.67393818 13.89233281 -45.41293791 6.41018048 -38.25 0.3125 C-26.30081782 -7.28987162 -11.95327021 -8.35590508 0 0 Z M-30.875 16.11328125 C-33.87974409 20.50942673 -35.05125572 23.9040239 -34.25 29.3125 C-32.20682161 34.98799553 -28.65252559 38.61123721 -23.25 41.3125 C-18.59951706 41.87985892 -15.15269423 41.7723631 -10.9375 39.625 C-6.22968254 35.5740873 -3.47694007 32.31945597 -3 26 C-3.35604695 20.74830745 -4.8060042 17.68049602 -8.625 14.0625 C-16.36729409 8.90097061 -24.36288469 8.89673039 -30.875 16.11328125 Z " fill="#FFFFFF" transform="translate(355.25,244.6875)"/>
<path d="M0 0 C7.42146973 6.08710446 11.91423077 13.36839269 13.06640625 22.94140625 C13.46271937 31.92876516 11.16900608 39.84494916 5.3125 46.75 C4.14614486 47.95827488 2.9607106 49.14867341 1.75 50.3125 C0.96625 51.075625 0.1825 51.83875 -0.625 52.625 C-8.53743835 57.71156751 -17.01326829 58.27577445 -26.25 57.3125 C-29.5703727 56.40294282 -32.31921701 55.10255907 -35.25 53.3125 C-35.88550781 52.93867188 -36.52101562 52.56484375 -37.17578125 52.1796875 C-43.67854516 47.97447401 -47.55774364 42.21868674 -49.7421875 34.82421875 C-51.55863501 25.83978992 -50.55293808 17.42001328 -46.25 9.3125 C-41.1776602 1.79748966 -34.58928471 -3.16607167 -25.7109375 -5.296875 C-16.51670458 -6.75627705 -7.72888759 -5.40286046 0 0 Z M-31.6875 16.875 C-34.42524018 21.14587468 -34.92933132 25.34017211 -34.25 30.3125 C-31.67710499 35.26770521 -28.26766074 38.80366963 -23.25 41.3125 C-18.59951706 41.87985892 -15.15269423 41.7723631 -10.9375 39.625 C-6.26059598 35.60068724 -3.60678219 32.34514861 -2.875 26.125 C-3.36390961 21.154419 -4.91183194 18.01176797 -8.25 14.3125 C-11.53632567 11.9471406 -14.79127365 10.60424527 -18.75 9.8125 C-23.92922342 10.84834468 -28.05342679 13.05456406 -31.6875 16.875 Z " fill="#FFFFFF" transform="translate(194.25,244.6875)"/>
<path d="M0 0 C5.2301062 5.34897225 6.98877146 9.78911811 7.25 17.3125 C6.98818135 24.85287726 5.24595389 29.31654611 -0.0625 34.625 C-6.59548429 39.10842059 -12.38608202 41.06278116 -20.25 39.8125 C-26.10863834 37.76996181 -30.94911568 35.22595029 -34.25 29.8125 C-34.8275 28.966875 -35.405 28.12125 -36 27.25 C-38.21555161 21.15723306 -38.4355395 13.97723083 -36 7.875 C-32.2227375 1.26479062 -28.44671793 -2.17586725 -21.3125 -4.9375 C-12.92237113 -5.95448532 -7.00312125 -4.7136393 0 0 Z M-19.5625 12.375 C-21.60246661 14.81528248 -21.60246661 14.81528248 -21.1875 18.4375 C-20.5749155 22.06766924 -20.5749155 22.06766924 -17.25 23.8125 C-12.74149818 23.46804402 -12.74149818 23.46804402 -9.25 20.8125 C-8.74992206 17.35463985 -8.74992206 17.35463985 -9.25 13.8125 C-10.88450124 11.75304984 -10.88450124 11.75304984 -13.25 10.8125 C-17.16275555 10.43926173 -17.16275555 10.43926173 -19.5625 12.375 Z " fill="#FFFFFF" transform="translate(404.25,209.1875)"/>
<path d="M0 0 C5.20894964 4.34079137 8.48633175 9.14489382 9.38671875 15.90234375 C9.62561504 22.43492168 8.98605996 27.69348054 5 33 C-0.16511363 38.16511363 -5.53477028 41.09662246 -12.875 41.4375 C-19.02110047 41.21332612 -24.21745457 39.51442007 -28.82421875 35.3515625 C-34.41590313 29.15061469 -35.52460983 23.56281804 -35.375 15.296875 C-34.72116854 9.54860678 -32.48347696 5.45333767 -28.390625 1.41015625 C-20.02409773 -5.21014629 -9.00730911 -5.73192398 0 0 Z M-16.3125 12.75 C-18.14294055 13.90877315 -18.14294055 13.90877315 -19 16 C-19.4167552 18.95788569 -19.4167552 18.95788569 -19 22 C-17.48105194 24.09764165 -17.48105194 24.09764165 -15 25 C-11.87319901 25.00674926 -11.87319901 25.00674926 -9 24 C-6.43312633 20.1496895 -7.16711276 18.41430237 -8 14 C-12.07332237 12.21194245 -12.07332237 12.21194245 -16.3125 12.75 Z " fill="#FFFFFF" transform="translate(439,171)"/>
<path d="M0 0 C4.89053944 5.16999884 6.81870138 10.02670023 7.06640625 17.15234375 C6.77115239 23.81886506 5.46091831 28.45765325 0.85546875 33.3359375 C-5.15630586 38.80954014 -10.42865309 40.06663392 -18.4921875 39.8984375 C-25.5545867 39.17291144 -29.83252563 35.81050816 -34.26953125 30.46875 C-38.16022755 24.50879802 -38.2062977 18.50309488 -37.49609375 11.58984375 C-35.75527657 5.3249867 -31.76531714 1.21821249 -26.49609375 -2.41015625 C-18.19949694 -6.91267368 -7.38380328 -6.13834248 0 0 Z M-19.24609375 12.15234375 C-21.74821395 14.42740095 -21.74821395 14.42740095 -22.05859375 17.65234375 C-21.75048792 20.63225087 -21.75048792 20.63225087 -19.80859375 22.46484375 C-17.07249139 23.79592058 -15.50128533 24.05218092 -12.49609375 23.58984375 C-10.55954427 22.57014057 -10.55954427 22.57014057 -9.49609375 20.58984375 C-9.09778172 17.40334751 -8.89061292 15.46779095 -10.74609375 12.77734375 C-14.19177995 10.43919954 -15.4837051 10.01462292 -19.24609375 12.15234375 Z " fill="#FFFFFF" transform="translate(404.49609375,135.41015625)"/>
<path d="M0 0 C4.8775652 4.97490021 7.875968 10.27903198 8.0625 17.37890625 C7.71621131 24.4670028 5.40427624 29.40354688 0.546875 34.53515625 C-4.77800404 39.34156022 -10.36081232 40.556484 -17.34375 40.3671875 C-23.17874607 39.5605851 -28.05568036 37.2519402 -31.92578125 32.76953125 C-36.61805235 25.90470504 -37.78297863 20.27233939 -37 12 C-35.19759924 5.37589021 -30.62747698 0.72421694 -25 -3 C-16.90226903 -6.7374143 -7.10001043 -5.20169185 0 0 Z M-18.9375 12.4375 C-21.37881818 14.9224155 -21.37881818 14.9224155 -21 18.625 C-20.31742476 22.25073889 -20.31742476 22.25073889 -17 24 C-14.54290625 24.58350505 -14.54290625 24.58350505 -12 24 C-9.40878096 21.9901643 -9.40878096 21.9901643 -8 19 C-8.17064848 15.73800514 -8.17064848 15.73800514 -10 13 C-13.69615455 10.86444404 -15.06763206 10.54373484 -18.9375 12.4375 Z " fill="#FFFFFF" transform="translate(367,172)"/>
<path d="M0 0 C1.23685547 -0.02900391 2.47371094 -0.05800781 3.74804688 -0.08789062 C4.94107422 -0.09626953 6.13410156 -0.10464844 7.36328125 -0.11328125 C9.0016394 -0.13515503 9.0016394 -0.13515503 10.6730957 -0.1574707 C14.40093072 0.42372978 16.03646651 1.67400942 18.6875 4.3125 C19.94360015 8.0022942 20.03102813 9.57636829 18.375 13.125 C16.6875 15.3125 16.6875 15.3125 14.6875 16.3125 C10.60220043 16.59292286 6.51526466 16.62609145 2.42114258 16.66259766 C1.06224414 16.67913597 -0.29656805 16.70639921 -1.6550293 16.74462891 C-3.61974686 16.79959607 -5.58537525 16.81816889 -7.55078125 16.8359375 C-8.72680908 16.85575684 -9.90283691 16.87557617 -11.11450195 16.89599609 C-15.27341236 16.13717513 -16.76137561 14.62065684 -19.3125 11.3125 C-19.3125 7.65506132 -19.12558469 5.37304525 -16.875 2.4375 C-12.01363732 -1.06268113 -5.760944 0.04461237 0 0 Z " fill="#FFFFFF" transform="translate(289.3125,202.6875)"/>
<path d="M0 0 C1.78567383 -0.00386719 1.78567383 -0.00386719 3.60742188 -0.0078125 C5.47430664 0.00378906 5.47430664 0.00378906 7.37890625 0.015625 C9.23999023 0.00402344 9.23999023 0.00402344 11.13867188 -0.0078125 C12.33041016 -0.00523437 13.52214844 -0.00265625 14.75 0 C15.84111084 0.00225586 16.93222168 0.00451172 18.05639648 0.00683594 C20.91452783 0.26321397 22.54766111 0.72794629 24.94140625 2.265625 C27.02299645 4.94195526 26.93728216 6.38316168 26.81640625 9.828125 C25.94140625 13.265625 25.94140625 13.265625 24.29882812 14.95556641 C21.18363571 16.68673071 18.90320664 16.6537665 15.34765625 16.6640625 C14.07019531 16.66792969 12.79273438 16.67179687 11.4765625 16.67578125 C10.81414551 16.66949707 10.15172852 16.66321289 9.46923828 16.65673828 C7.44755536 16.64067386 5.42787112 16.65660265 3.40625 16.67578125 C2.12878906 16.67191406 0.85132813 16.66804688 -0.46484375 16.6640625 C-1.63337891 16.66067871 -2.80191406 16.65729492 -4.00585938 16.65380859 C-7.33530083 16.23043912 -8.71136723 15.62468511 -11.05859375 13.265625 C-12.23267009 9.66512422 -12.38619051 7.98633787 -10.80859375 4.515625 C-7.55075325 0.32697293 -5.06464067 0.01048192 0 0 Z " fill="#FFFFFF" transform="translate(215.05859375,202.734375)"/>
</svg>
