<?xml version="1.0" encoding="UTF-8"?>
<svg version="1.1" xmlns="http://www.w3.org/2000/svg" width="512" height="512">
<path d="M0 0 C5.0200901 2.91653008 8.76369988 7.06799326 10.38671875 12.71557617 C11.7797077 20.73884109 12.52049696 28.78880185 13.18261719 36.89892578 C13.3758198 39.26001862 13.57792425 41.62022824 13.78125 43.98046875 C13.90937496 45.50256042 14.03699687 47.02469453 14.1640625 48.546875 C14.22340973 49.24182068 14.28275696 49.93676636 14.34390259 50.652771 C14.69015964 54.94615028 14.8025167 59.19363026 14.75 63.5 C15.72839844 63.47679688 16.70679688 63.45359375 17.71484375 63.4296875 C38.17783815 63.14799436 38.17783815 63.14799436 45.75 70.5 C50.70052379 77.85886168 50.31535153 85.28134596 50.2646637 93.83447266 C50.26999248 95.40310633 50.27706008 96.9717349 50.28571075 98.54035378 C50.30432084 102.83954229 50.29803881 107.13838595 50.28755772 111.43758869 C50.28056114 116.07843836 50.29656707 120.71921751 50.30955505 125.36004639 C50.33119206 134.44696639 50.33106901 143.53376115 50.32292951 152.62069845 C50.31662889 160.00603539 50.31776712 167.39133581 50.32420158 174.77667236 C50.32510324 175.82791593 50.32600489 176.8791595 50.32693387 177.96225893 C50.32878508 180.09786082 50.33064764 182.2334627 50.33252143 184.36906457 C50.34909865 204.39315067 50.34038112 224.41716631 50.32353585 244.44124818 C50.30883674 262.76153273 50.32347044 281.08165331 50.35230602 299.40191674 C50.38169623 318.21467299 50.39267353 337.02735355 50.38312382 355.84013176 C50.38210126 357.96786371 50.38110665 360.09559566 50.3801403 362.22332764 C50.37966391 363.27020394 50.37918752 364.31708024 50.3786967 365.39568007 C50.3765322 372.77189288 50.3863385 380.14803404 50.40091133 387.52423096 C50.41842389 396.51376484 50.41833262 405.5030896 50.39555968 414.49261522 C50.38440813 419.0789935 50.38127568 423.6650032 50.39986038 428.25136566 C50.4166588 432.45093647 50.41032313 436.64981703 50.38564359 440.84934306 C50.38075781 442.36740278 50.38428292 443.8855181 50.39713103 445.40353131 C50.46049136 453.47274256 50.45469106 460.24458982 44.75 466.5 C39.42427176 471.55944183 34.7946299 472.74928941 27.53978634 472.75726891 C26.82103343 472.76077498 26.10228053 472.76428105 25.36174724 472.76789337 C22.94673069 472.77721749 20.53195475 472.77228151 18.1169281 472.76742554 C16.37067104 472.77116126 14.62441565 472.77576247 12.87816292 472.78115618 C8.07429728 472.7934107 3.27050114 472.79312284 -1.53337657 472.79076743 C-6.71202032 472.7903599 -11.89064159 472.80139219 -17.0692749 472.81088257 C-27.21602932 472.8275058 -37.3627605 472.83299267 -47.50952739 472.83410732 C-55.75356197 472.83505695 -63.99758887 472.83916294 -72.24162102 472.84550858 C-95.59959603 472.86312277 -118.95755266 472.87234689 -142.31553436 472.87084763 C-144.20496619 472.87072776 -144.20496619 472.87072776 -146.13256836 472.87060547 C-148.02429831 472.87048283 -148.02429831 472.87048283 -149.95424502 472.87035771 C-170.40811294 472.86954423 -190.86190731 472.88869695 -211.31575394 472.9168822 C-232.30252711 472.94557444 -253.28926437 472.95942459 -274.27605766 472.95769465 C-286.06474693 472.95702959 -297.85335907 472.96257265 -309.64203072 472.98405075 C-319.67584881 473.0022142 -329.70955479 473.00664966 -339.74338216 472.9930319 C-344.86589 472.9864784 -349.98818242 472.98647064 -355.11067009 473.0037384 C-359.79546655 473.01936889 -364.47987499 473.01670905 -369.1646614 472.99917014 C-370.86376602 472.99607804 -372.56289889 472.99981489 -374.26197023 473.01089029 C-376.56366591 473.02490598 -378.86398047 473.01451028 -381.16562748 472.99777794 C-382.44637183 472.99821267 -383.72711619 472.99864741 -385.04667097 472.99909532 C-388.80756234 472.41312889 -389.96098601 471.47451475 -392.25 468.5 C-393.05161953 466.58332157 -393.05161953 466.58332157 -393.48497009 464.54811096 C-393.74578102 463.37720476 -393.74578102 463.37720476 -394.01186085 462.18264389 C-394.18575683 461.33032307 -394.35965281 460.47800224 -394.53881836 459.59985352 C-394.73727954 458.68840199 -394.93574072 457.77695045 -395.14021587 456.83787918 C-395.80426703 453.77108496 -396.44684023 450.70017685 -397.08984375 447.62890625 C-397.56378068 445.42058198 -398.03910821 443.21255577 -398.51571655 441.00480652 C-399.54564621 436.22053005 -400.56623857 431.43438926 -401.57974243 426.64660645 C-403.20209359 418.98355478 -404.84466712 411.32492971 -406.4909668 403.66699219 C-407.06075104 401.01549987 -407.63037987 398.3639742 -408.19993591 395.71243286 C-408.41424939 394.71478847 -408.41424939 394.71478847 -408.63289243 393.69698966 C-409.66657337 388.88370282 -410.69724256 384.0697765 -411.72669983 379.25558472 C-416.08177204 358.89338354 -420.48943085 338.54300768 -424.9296875 318.19921875 C-425.08927893 317.4679676 -425.24887036 316.73671645 -425.41329789 315.98330617 C-427.17137891 307.92816469 -428.93073425 299.87330192 -430.69070435 291.818573 C-432.36540934 284.15392282 -434.03795847 276.48880373 -435.70951092 268.82346547 C-436.14879188 266.80918993 -436.58819775 264.79494168 -437.02763271 262.78069973 C-438.45014157 256.25972053 -439.87091171 249.73837157 -441.28837585 243.21629333 C-443.79282088 231.70139291 -446.31070097 220.19012542 -448.89354801 208.6925621 C-450.03471661 203.61252187 -451.16515212 198.53009518 -452.29591942 193.44773102 C-452.82793065 191.06903588 -453.36445945 188.69134579 -453.90590858 186.31478119 C-454.65077028 183.04465454 -455.38001406 179.77138659 -456.10620117 176.49707031 C-456.32518003 175.5554026 -456.5441589 174.61373489 -456.76977348 173.6435318 C-458.44995625 165.95086129 -459.67776524 157.63300466 -457.0625 150.0625 C-450.46000581 140.72793925 -440.89172042 138.21797183 -430.4140625 134.828125 C-429.41289398 134.50084412 -428.41172546 134.17356323 -427.38021851 133.83636475 C-425.28175169 133.15174053 -423.18250577 132.46950013 -421.08251953 131.78955078 C-417.86129676 130.74555881 -414.64343669 129.69164762 -411.42578125 128.63671875 C-409.38040093 127.97076236 -407.33483449 127.30537723 -405.2890625 126.640625 C-404.326586 126.32506653 -403.3641095 126.00950806 -402.37246704 125.68438721 C-401.48078827 125.39698669 -400.5891095 125.10958618 -399.67041016 124.81347656 C-398.49534409 124.43186371 -398.49534409 124.43186371 -397.29653931 124.0425415 C-395.25 123.5 -395.25 123.5 -392.25 123.5 C-392.2814209 121.61680054 -392.2814209 121.61680054 -392.31347656 119.69555664 C-392.38628095 115.00475626 -392.43194608 110.3140051 -392.46972656 105.62280273 C-392.4897503 103.59862854 -392.51697767 101.57451153 -392.55175781 99.55053711 C-392.60068462 96.62859935 -392.6230615 93.7074312 -392.640625 90.78515625 C-392.66127014 89.89103531 -392.68191528 88.99691437 -392.70318604 88.07569885 C-392.70562026 81.14492532 -391.23994161 75.13488676 -386.75860596 69.68690491 C-378.68999079 61.95938174 -367.51475027 63.27357396 -357.12231445 63.46679688 C-355.60272686 63.48700537 -354.08312314 63.50603028 -352.56350708 63.52397156 C-349.29627697 63.56319294 -346.02915334 63.60708836 -342.7620182 63.65351868 C-337.53359702 63.72402698 -332.30526204 63.76089646 -327.07646179 63.78942871 C-326.18672946 63.79434971 -325.29699712 63.79927072 -324.3803032 63.80434084 C-321.63830288 63.81914272 -318.8963004 63.8334605 -316.15429688 63.84765625 C-304.92520936 63.90586097 -293.69818576 63.9859145 -282.47045898 64.17529297 C-238.82128049 64.89148344 -201.28732572 64.04651622 -160.5592804 46.68676758 C-152.98581124 43.49310198 -145.16968325 41.06109703 -137.32637787 38.62637329 C-134.79746947 37.83981086 -132.27924489 37.02214908 -129.76196289 36.19921875 C-128.99830917 35.95179932 -128.23465546 35.70437988 -127.44786072 35.44946289 C-115.84827007 31.6887443 -104.26534476 27.87770483 -92.68359375 24.0625 C-91.8105617 23.77494339 -90.93752964 23.48738678 -90.03804207 23.19111633 C-81.1557647 20.26536863 -72.27399305 17.33809299 -63.3931818 14.40789795 C-60.02255037 13.29601757 -56.65160925 12.1850781 -53.28061104 11.0743103 C-51.71376684 10.55776714 -50.14706219 10.04080044 -48.58051872 9.52334595 C-43.47427276 7.83672097 -38.36377715 6.16364176 -33.25 4.5 C-32.41894745 4.22838043 -31.5878949 3.95676086 -30.73165894 3.6769104 C-28.15765041 2.83781893 -25.5811555 2.00681221 -23.00390625 1.17773438 C-22.21339874 0.91909859 -21.42289124 0.6604628 -20.60842896 0.39398956 C-13.36240822 -1.91980492 -7.20957755 -2.99163779 0 0 Z M-21.7265625 14.5078125 C-22.66660126 14.82444351 -23.60664001 15.14107452 -24.57516479 15.46730042 C-26.60922641 16.1532223 -28.64215702 16.84250528 -30.67407227 17.53475952 C-35.038309 19.02122468 -39.40816633 20.49081159 -43.77789307 21.96104431 C-46.02469162 22.71700433 -48.27123089 23.47373535 -50.51751709 24.23121643 C-60.57282953 27.6193119 -70.65548972 30.91840011 -80.75 34.1875 C-84.20468175 35.30780989 -87.65906054 36.42905069 -91.11328125 37.55078125 C-92.02297165 37.84616791 -92.93266205 38.14155457 -93.86991882 38.44589233 C-108.5695006 43.22376459 -123.25210897 48.0537333 -137.9375 52.875 C-139.41113179 53.35875759 -140.8847646 53.84251208 -142.35839844 54.32626343 C-150.65583054 57.05013729 -158.95303451 59.77470512 -167.25 62.5 C-167.25 62.83 -167.25 63.16 -167.25 63.5 C-111.48 63.5 -55.71 63.5 1.75 63.5 C0.93168589 48.4235159 0.93168589 48.4235159 -0.1875 33.375 C-0.29868164 31.951875 -0.29868164 31.951875 -0.41210938 30.5 C-0.91846815 20.82590685 -0.91846815 20.82590685 -5.0625 12.5 C-10.72417665 9.91180496 -16.21683418 12.6112427 -21.7265625 14.5078125 Z M-377.25 78.5 C-377.72760878 80.90237185 -378.08549989 83.21180448 -378.35996819 85.63869476 C-378.44425536 86.35467908 -378.52854253 87.0706634 -378.61538386 87.80834422 C-379.43393025 95.29462705 -379.52338151 102.75552595 -379.49050903 110.28088379 C-379.49138386 111.80024554 -379.49313992 113.31960698 -379.49568737 114.83896685 C-379.50011046 118.96443144 -379.49222764 123.08979007 -379.48213124 127.21524119 C-379.47342539 131.68262241 -379.47642191 136.14999854 -379.47793579 140.61738586 C-379.47898017 148.34100235 -379.47275059 156.06458482 -379.46146011 163.78819275 C-379.44514705 174.95497649 -379.43999119 186.12174392 -379.43748413 197.28853828 C-379.4331161 215.40965331 -379.4198313 233.53075025 -379.40087891 251.65185547 C-379.38249695 269.24593007 -379.3683518 286.83999975 -379.35986328 304.43408203 C-379.35933783 305.52013184 -379.35881239 306.60618165 -379.35827102 307.72514206 C-379.35566078 313.17399789 -379.3531334 318.62285375 -379.35064721 324.07170963 C-379.32994252 369.21448561 -379.2947414 414.35724187 -379.25 459.5 C-326.97615659 459.59149686 -274.70232125 459.66200888 -222.42841356 459.70426132 C-216.26111347 459.70926432 -210.09381353 459.71444159 -203.92651367 459.71972656 C-202.08476699 459.72130043 -202.08476699 459.72130043 -200.20581331 459.72290608 C-180.30843149 459.74032524 -160.41109575 459.77187125 -140.51374129 459.80861118 C-120.10682609 459.84597857 -99.69993507 459.86822695 -79.29298705 459.87635398 C-66.69438663 459.88185047 -54.09591647 459.8992289 -41.49735614 459.93166587 C-32.86546376 459.95276189 -24.233639 459.9592112 -15.60172269 459.95400551 C-10.61683292 459.95143607 -5.63217122 459.95545567 -0.6473217 459.9768219 C3.91312047 459.99622689 8.47318027 459.99730956 13.03363971 459.98359558 C14.68648449 459.98189959 16.33935272 459.98702503 17.99215104 459.99953273 C20.23391278 460.0155158 22.47428251 460.00697852 24.71602154 459.99219131 C25.96264338 459.9937102 27.20926523 459.99522908 28.49366349 459.99679399 C32.45305804 459.39273989 34.09433043 458.49065097 36.75 455.5 C37.49647024 452.54358659 37.49647024 452.54358659 37.37641239 449.17808533 C37.38883443 447.86979798 37.40125647 446.56151064 37.41405493 445.21357822 C37.40255322 443.75818586 37.39058098 442.30279716 37.37818909 440.84741211 C37.3832322 439.30412693 37.39045921 437.76084758 37.39968723 436.21758175 C37.41867026 431.9699572 37.40634203 427.72290593 37.3889643 423.47529554 C37.37562541 418.89716477 37.39101484 414.31911982 37.40278625 409.74099731 C37.42119328 400.7698025 37.41263014 391.79882506 37.39469803 382.82763696 C37.38068887 375.53846717 37.3767756 368.24935652 37.3801403 360.96017456 C37.38061775 359.92388631 37.38109519 358.88759806 37.3815871 357.81990713 C37.3826134 355.71489817 37.38366876 353.60988923 37.38475286 351.50488031 C37.39332612 332.87918653 37.37662463 314.25359789 37.34692383 295.62792969 C37.31808493 277.5425983 37.31100208 259.45741839 37.32641602 241.37207031 C37.34316605 221.6920228 37.34722461 202.01204725 37.32970566 182.33199787 C37.32786121 180.23460707 37.32602648 178.13721626 37.32420158 176.03982544 C37.32328949 175.007791 37.3223774 173.97575656 37.32143768 172.91244835 C37.31582483 165.62959803 37.31914642 158.34678276 37.32574654 151.06393433 C37.3334673 142.19204667 37.32677259 133.32030831 37.3015715 124.4484508 C37.28904717 119.91935693 37.28296529 115.39049581 37.29411316 110.86139297 C37.30411764 106.71868918 37.2957776 102.57645061 37.27253198 98.43380368 C37.2673515 96.93185102 37.26897245 95.42985703 37.27792663 93.92792213 C37.28905515 91.8926038 37.27334454 89.85719086 37.25615788 87.82191467 C37.25496639 86.68947862 37.25377491 85.55704256 37.25254732 84.39029026 C36.63439301 80.83511184 35.57162819 79.68229205 32.75 77.5 C29.31628545 76.35542848 26.68455696 76.3734438 23.06140804 76.37136555 C22.03142752 76.36873599 22.03142752 76.36873599 20.98063931 76.36605331 C18.6628492 76.36137421 16.34512129 76.3638637 14.02732849 76.36628723 C12.35562004 76.36442023 10.68391202 76.36211997 9.01220471 76.35942191 C4.40520162 76.35328399 -0.20178337 76.35343983 -4.80878961 76.35461628 C-9.77201455 76.35481978 -14.7352336 76.34930646 -19.69845581 76.34455872 C-29.4263736 76.33624117 -39.15428534 76.33350339 -48.88220639 76.33294634 C-56.78496096 76.33247179 -64.68771352 76.33042011 -72.59046745 76.32724571 C-94.9743117 76.31843686 -117.35815114 76.31382681 -139.74199713 76.31457619 C-141.55326446 76.31463612 -141.55326446 76.31463612 -143.40112305 76.31469727 C-145.21458983 76.31475859 -145.21458983 76.31475859 -147.06469231 76.31482115 C-166.67290017 76.31522789 -186.28108886 76.30565175 -205.88929117 76.2915589 C-226.00135788 76.27721741 -246.11341522 76.27028745 -266.22548717 76.27115268 C-277.52562866 76.27148537 -288.82575002 76.2687065 -300.12588692 76.25797462 C-309.74403431 76.24889895 -319.36215247 76.24667015 -328.98030228 76.25348405 C-333.89186265 76.25676391 -338.80336683 76.2567535 -343.71492195 76.2481308 C-348.20468431 76.24032929 -352.69434534 76.24163139 -357.18410503 76.25041493 C-358.81459242 76.25196403 -360.44508713 76.25008146 -362.07556588 76.24455485 C-364.27958582 76.23757473 -366.48324232 76.24272447 -368.68724918 76.25111103 C-370.5291115 76.25078498 -370.5291115 76.25078498 -372.40818316 76.25045234 C-375.38339734 76.20503652 -375.38339734 76.20503652 -377.25 78.5 Z M-397.50683594 137.8293457 C-398.86394684 138.26528801 -398.86394684 138.26528801 -400.24847412 138.71003723 C-401.23382141 139.02873276 -402.2191687 139.34742828 -403.234375 139.67578125 C-404.24211975 140.0016069 -405.2498645 140.32743256 -406.28814697 140.66313171 C-408.42709421 141.35580749 -410.56573682 142.04942457 -412.70410156 142.74389648 C-415.97025878 143.80285723 -419.23898809 144.85360331 -422.5078125 145.90429688 C-424.58349928 146.57761363 -426.65902541 147.2514259 -428.734375 147.92578125 C-429.71162537 148.23840408 -430.68887573 148.55102692 -431.69573975 148.87312317 C-438.29294844 151.0068759 -438.29294844 151.0068759 -444.25 154.5 C-447.45753939 160.91507878 -444.08200908 169.79565932 -442.62988281 176.32885742 C-442.34953186 177.61754384 -442.06918091 178.90623026 -441.78033447 180.23396778 C-441.00848897 183.78111642 -440.22765635 187.32623357 -439.44528294 190.87107277 C-438.61223246 194.65312015 -437.78763871 198.43701101 -436.96209717 202.22070312 C-435.55000187 208.68741237 -434.1327769 215.15297906 -432.71191406 221.61776733 C-430.68572859 230.83690138 -428.66752621 240.05776763 -426.65176487 249.27918589 C-424.270543 260.17232748 -421.8880584 271.0651912 -419.50109863 281.95707703 C-419.32108637 282.77849208 -419.14107411 283.59990713 -418.95560694 284.44621354 C-418.77657249 285.26316011 -418.59753804 286.08010667 -418.41307831 286.9218092 C-413.09082454 311.20776191 -407.80255469 335.50100748 -402.52868652 359.79751587 C-401.266497 365.61220681 -400.00307041 371.42662843 -398.73925781 377.2409668 C-398.54534832 378.13307673 -398.35143883 379.02518665 -398.15165329 379.94433022 C-397.77868979 381.66018366 -397.40572314 383.37603642 -397.03275299 385.09188843 C-396.21438075 388.85704061 -395.39623408 392.6222418 -394.578125 396.38745117 C-394.3193457 397.57843918 -394.06056641 398.76942719 -393.79394531 399.99650574 C-393.61444336 400.82265884 -393.43494141 401.64881195 -393.25 402.5 C-392.92 402.5 -392.59 402.5 -392.25 402.5 C-392.25 314.72 -392.25 226.94 -392.25 136.5 C-394.07224998 136.5 -395.78660541 137.27572759 -397.50683594 137.8293457 Z " fill="#FFFFFF" transform="translate(460.25,20.5)"/>
<path d="M0 0 C0.96741623 -0.00990463 1.93483246 -0.01980927 2.93156433 -0.03001404 C3.9914003 -0.02551239 5.05123627 -0.02101074 6.14318848 -0.01637268 C7.8191082 -0.02666756 7.8191082 -0.02666756 9.52888489 -0.03717041 C13.23182792 -0.05551163 16.93435028 -0.05159065 20.6373291 -0.0459137 C23.20418436 -0.05047168 25.77103839 -0.05577609 28.33789062 -0.0617981 C33.72145116 -0.07074342 39.10484931 -0.0685223 44.48840332 -0.05836487 C50.71368868 -0.04687894 56.93854348 -0.06096546 63.16377211 -0.08776134 C69.1508465 -0.11256827 75.13769888 -0.11510038 81.12483215 -0.10864449 C83.67341325 -0.10849071 86.22200243 -0.11458099 88.77055359 -0.12693596 C92.3286883 -0.14175478 95.88586571 -0.13123535 99.44396973 -0.11402893 C100.50380569 -0.1236969 101.56364166 -0.13336487 102.65559387 -0.14332581 C103.6230101 -0.13349167 104.59042633 -0.12365753 105.5871582 -0.11352539 C106.84923977 -0.11321146 106.84923977 -0.11321146 108.13681793 -0.1128912 C110.2935791 0.38768005 110.2935791 0.38768005 112.0635004 2.12250423 C113.4612498 4.69644373 113.67267218 6.21829666 113.68125916 9.13169861 C113.69116379 10.08221603 113.70106842 11.03273346 113.71127319 12.01205444 C113.70677155 13.04802261 113.7022699 14.08399078 113.69763184 15.15135193 C113.70449509 16.24766434 113.71135834 17.34397675 113.71842957 18.47351074 C113.73674724 22.10128184 113.73285316 25.72862258 113.72717285 29.35643005 C113.73173193 31.87461997 113.73703668 34.39280864 113.74305725 36.91099548 C113.75199789 42.19021026 113.74978718 47.469313 113.73962402 52.7485199 C113.7281385 58.84940939 113.74222592 64.94985952 113.7690205 71.05069113 C113.79384466 76.92295665 113.79635655 82.79505106 113.78990364 88.6673584 C113.78975 91.16487357 113.79582953 93.66239703 113.80819511 96.15988159 C113.82303377 99.64825871 113.81247979 103.13566203 113.79528809 106.62400818 C113.80495605 107.65997635 113.81462402 108.69594452 113.82458496 109.76330566 C113.78426171 113.66074458 113.73157655 116.53614815 111.93495178 120.02905273 C107.61005006 122.25362698 103.32110941 121.93410199 98.52990723 121.88938904 C97.43359482 121.89479202 96.33728241 121.90019501 95.20774841 121.90576172 C91.57983497 121.91828034 87.95271022 121.90173623 84.3248291 121.8837738 C81.8066402 121.88392872 79.28845106 121.88541643 76.77026367 121.88818359 C71.49100096 121.889569 66.21194311 121.87741881 60.93273926 121.85423279 C54.83190146 121.82762341 48.73144397 121.82587617 42.63056803 121.83762115 C36.75829577 121.84840586 30.88616232 121.84210548 25.01390076 121.82806587 C22.5163971 121.82354424 20.01888225 121.82322075 17.52137756 121.82713127 C14.03310078 121.83003619 10.54544888 121.81356997 7.05725098 121.79173279 C5.50329872 121.79848526 5.50329872 121.79848526 3.91795349 121.80537415 C2.96743607 121.79546951 2.01691864 121.78556488 1.03759766 121.77536011 C0.21317924 121.77293021 -0.61123917 121.77050032 -1.46063995 121.76799679 C-4.32716274 121.28255916 -5.67410818 120.46110837 -7.7064209 118.38768005 C-8.20699215 116.23091888 -8.20699215 116.23091888 -8.20762634 113.68125916 C-8.22237755 112.23013481 -8.22237755 112.23013481 -8.23742676 110.74969482 C-8.2229248 109.15994087 -8.2229248 109.15994087 -8.20812988 107.53807068 C-8.21353287 106.42079086 -8.21893585 105.30351105 -8.22450256 104.15237427 C-8.23703726 100.44929228 -8.22046645 96.74698055 -8.20251465 93.04393005 C-8.20266952 90.4770758 -8.20415661 87.9102213 -8.20692444 85.34336853 C-8.20831057 79.95975056 -8.19614664 74.57641809 -8.17297363 69.19285583 C-8.1463633 62.96762114 -8.14461645 56.74275913 -8.156362 50.51748705 C-8.16713921 44.53041044 -8.1608528 38.54350474 -8.14680672 32.556427 C-8.14228121 30.00785719 -8.14196496 27.4592764 -8.14587212 24.91070557 C-8.14877315 21.35266935 -8.13232954 17.79524807 -8.11047363 14.23728943 C-8.11497528 13.17745346 -8.11947693 12.11761749 -8.12411499 11.02566528 C-8.11421036 10.05824905 -8.10430573 9.09083282 -8.09410095 8.09410095 C-8.09045611 6.83201939 -8.09045611 6.83201939 -8.08673763 5.54444122 C-7.7064209 3.38768005 -7.7064209 3.38768005 -6.4763422 1.61775875 C-4.18285859 0.02380916 -2.78372155 0.00803928 0 0 Z M5.2935791 13.38768005 C5.2935791 44.73768005 5.2935791 76.08768005 5.2935791 108.38768005 C36.6435791 108.38768005 67.9935791 108.38768005 100.2935791 108.38768005 C100.2935791 77.03768005 100.2935791 45.68768005 100.2935791 13.38768005 C68.9435791 13.38768005 37.5935791 13.38768005 5.2935791 13.38768005 Z " fill="#FFFFFF" transform="translate(146.7064208984375,245.61231994628906)"/>
<path d="M0 0 C0.99489974 -0.00644889 1.98979948 -0.01289778 3.0148477 -0.0195421 C4.11589592 -0.01644489 5.21694414 -0.01334769 6.35135746 -0.01015663 C7.51476204 -0.01468774 8.67816661 -0.01921886 9.87682587 -0.02388728 C13.11600623 -0.03439219 16.35504775 -0.03585123 19.59423983 -0.03349853 C23.08374521 -0.03309157 26.57321706 -0.04411787 30.06270695 -0.05361366 C36.90281717 -0.07025059 43.74289293 -0.07572441 50.58302169 -0.07683842 C56.14073431 -0.07778757 61.69843552 -0.08189119 67.25614452 -0.08823967 C83.00033262 -0.10585901 98.74449341 -0.1150774 114.48869144 -0.11357872 C115.3380662 -0.11349881 116.18744097 -0.1134189 117.06255436 -0.11333656 C117.91296164 -0.1132548 118.76336891 -0.11317304 119.6395461 -0.1130888 C133.42730684 -0.11227558 147.21495841 -0.13142042 161.00268757 -0.1596133 C175.1471384 -0.18830826 189.29153593 -0.20215548 203.43601662 -0.20042574 C211.38220328 -0.19976069 219.32827549 -0.20530321 227.274436 -0.22678185 C234.03909032 -0.24494914 240.80357832 -0.24937783 247.56824642 -0.235763 C251.02182786 -0.22921077 254.47508982 -0.22919642 257.92864132 -0.2464695 C261.66749316 -0.26178347 265.4054942 -0.25270504 269.14432621 -0.23720741 C270.79255246 -0.2526381 270.79255246 -0.2526381 272.47407621 -0.26838052 C273.4715837 -0.25918293 274.46909119 -0.24998534 275.49682617 -0.24050903 C276.79213474 -0.24116114 276.79213474 -0.24116114 278.11361116 -0.24182642 C280.31133366 0.25726891 280.31133366 0.25726891 282.12005287 2.06181753 C283.92177476 5.38227132 283.23586604 7.69121541 282.31133366 11.25726891 C279.08725542 13.4066544 278.24512831 13.50843197 274.53364754 13.51453781 C273.54434024 13.5209867 272.55503294 13.5274356 271.53574663 13.53407991 C270.44607527 13.53098271 269.35640391 13.5278855 268.2337122 13.52469444 C267.07832587 13.52922556 265.92293954 13.53375667 264.7325415 13.53842509 C261.52035379 13.54891804 258.30830636 13.55039106 255.09610689 13.54803634 C251.63386666 13.54762894 248.17166009 13.55865983 244.70943546 13.56815147 C237.92460635 13.58477875 231.13981198 13.59026178 224.3549642 13.59137623 C218.84162046 13.59232581 213.3282882 13.59643157 207.81494808 13.60277748 C192.19240881 13.62039395 176.56989704 13.62961562 160.94734777 13.62811653 C160.10477512 13.62803662 159.26220248 13.62795671 158.39409733 13.62787437 C157.55049909 13.62779261 156.70690086 13.62771085 155.83773904 13.62762661 C142.16064802 13.62681341 128.48366704 13.64595867 114.80660785 13.67415111 C100.77173168 13.70285347 86.73690922 13.71669289 72.70200294 13.71496356 C64.81895613 13.71429878 56.9360247 13.71982951 49.05300426 13.74131966 C42.34220113 13.75949661 35.6315657 13.7639076 28.92074866 13.75030081 C25.49538912 13.7437536 22.07035164 13.74371638 18.64502239 13.76100731 C14.93503617 13.77634061 11.22590529 13.76722978 7.51593876 13.75174522 C6.42849812 13.76203235 5.34105747 13.77231948 4.22066408 13.78291833 C-3.00022294 13.71596223 -3.00022294 13.71596223 -6.39676666 11.45292664 C-7.68866634 9.25726891 -7.68866634 9.25726891 -7.56366634 5.63226891 C-6.25914852 0.6005573 -4.89951765 0.00799499 0 0 Z " fill="#FFFFFF" transform="translate(157.68866634368896,393.74273109436035)"/>
<path d="M0 0 C0.99489974 -0.00644889 1.98979948 -0.01289778 3.0148477 -0.0195421 C4.11589592 -0.01644489 5.21694414 -0.01334769 6.35135746 -0.01015663 C7.51476204 -0.01468774 8.67816661 -0.01921886 9.87682587 -0.02388728 C13.11600623 -0.03439219 16.35504775 -0.03585123 19.59423983 -0.03349853 C23.08374521 -0.03309157 26.57321706 -0.04411787 30.06270695 -0.05361366 C36.90281717 -0.07025059 43.74289293 -0.07572441 50.58302169 -0.07683842 C56.14073431 -0.07778757 61.69843552 -0.08189119 67.25614452 -0.08823967 C83.00033262 -0.10585901 98.74449341 -0.1150774 114.48869144 -0.11357872 C115.3380662 -0.11349881 116.18744097 -0.1134189 117.06255436 -0.11333656 C117.91296164 -0.1132548 118.76336891 -0.11317304 119.6395461 -0.1130888 C133.42730684 -0.11227558 147.21495841 -0.13142042 161.00268757 -0.1596133 C175.1471384 -0.18830826 189.29153593 -0.20215548 203.43601662 -0.20042574 C211.38220328 -0.19976069 219.32827549 -0.20530321 227.274436 -0.22678185 C234.03909032 -0.24494914 240.80357832 -0.24937783 247.56824642 -0.235763 C251.02182786 -0.22921077 254.47508982 -0.22919642 257.92864132 -0.2464695 C261.66749316 -0.26178347 265.4054942 -0.25270504 269.14432621 -0.23720741 C270.79255246 -0.2526381 270.79255246 -0.2526381 272.47407621 -0.26838052 C273.4715837 -0.25918293 274.46909119 -0.24998534 275.49682617 -0.24050903 C276.79213474 -0.24116114 276.79213474 -0.24116114 278.11361116 -0.24182642 C280.31133366 0.25726891 280.31133366 0.25726891 282.11614662 2.06181753 C283.93883277 5.40992849 283.30707454 7.67260173 282.31133366 11.25726891 C279.37398848 13.25907298 276.9260416 13.5087571 273.42621708 13.51453781 C271.94449465 13.52421115 271.94449465 13.52421115 270.43283844 13.53407991 C269.34997087 13.53098271 268.26710329 13.5278855 267.15142155 13.52469444 C265.42318574 13.53149111 265.42318574 13.53149111 263.66003609 13.53842509 C260.46150901 13.54890603 257.26312308 13.55039311 254.06458426 13.54803634 C250.61531331 13.54762851 247.16607602 13.55866389 243.71682072 13.56815147 C236.95953426 13.58476864 230.2022827 13.5902613 223.44497752 13.59137623 C217.95406424 13.59232618 212.46316248 13.59643378 206.97225285 13.60277748 C191.41095923 13.62039029 175.84969322 13.62961606 160.28838956 13.62811653 C159.02985919 13.62799666 159.02985919 13.62799666 157.74590397 13.62787437 C156.90586185 13.62779261 156.06581973 13.62771085 155.20032179 13.62762661 C141.57825964 13.62681325 127.95630794 13.64596335 114.33427775 13.67415111 C100.35361048 13.70285325 86.37299714 13.71669294 72.39229965 13.71496356 C64.54056668 13.71429882 56.68894956 13.71982759 48.83724308 13.74131966 C42.15391233 13.7594962 35.47074997 13.76390785 28.78740525 13.75030081 C25.37621514 13.74375372 21.96534842 13.743716 18.55418873 13.76100731 C14.85958153 13.77634083 11.1658332 13.76722969 7.47124577 13.75174522 C6.38837819 13.76203235 5.30551062 13.77231948 4.18982887 13.78291833 C-3.00092912 13.71596485 -3.00092912 13.71596485 -6.39397335 11.45292664 C-7.68866634 9.25726891 -7.68866634 9.25726891 -7.56366634 5.63226891 C-6.25914852 0.6005573 -4.89951765 0.00799499 0 0 Z " fill="#FFFFFF" transform="translate(157.68866634368896,430.74273109436035)"/>
<path d="M0 0 C3.72767213 4.59749274 5.64114632 9.71826759 7.671875 15.23046875 C7.99915588 16.10270584 8.32643677 16.97494293 8.66363525 17.87361145 C9.34958885 19.70692927 10.03179918 21.54165159 10.71044922 23.37768555 C11.75178504 26.19232481 12.80659982 29.00163755 13.86328125 31.81054688 C14.52944643 33.59605567 15.19483834 35.3818532 15.859375 37.16796875 C16.17493347 38.00861374 16.49049194 38.84925873 16.81561279 39.71537781 C17.10301331 40.49661514 17.39041382 41.27785248 17.68652344 42.08276367 C17.94093201 42.76860031 18.19534058 43.45443695 18.4574585 44.16105652 C19 46 19 46 19 49 C19.66 49 20.32 49 21 49 C21.14731567 47.7927124 21.14731567 47.7927124 21.29760742 46.56103516 C22.16380024 42.169555 23.63911745 38.19429162 25.23828125 34.0234375 C25.7213398 32.75193344 25.7213398 32.75193344 26.2141571 31.45474243 C26.89459825 29.67018865 27.57807475 27.88678961 28.2644043 26.10449219 C29.31005391 23.3813702 30.33800199 20.65198892 31.36523438 17.921875 C32.03017824 16.18448527 32.69615906 14.44749197 33.36328125 12.7109375 C33.66760574 11.89732758 33.97193024 11.08371765 34.28547668 10.24545288 C35.90784425 6.08464532 37.27865336 2.72191487 41 0 C44.5625 -0.0625 44.5625 -0.0625 48 1 C51.26860651 5.3388821 52.90306561 10.630947 54.79296875 15.67578125 C55.31930656 17.06351997 55.31930656 17.06351997 55.85627747 18.47929382 C56.97120279 21.42200991 58.07943445 24.36719494 59.1875 27.3125 C59.9442206 29.31331783 60.7013772 31.31397083 61.45898438 33.31445312 C63.31104492 38.20773701 65.15762254 43.10306269 67 48 C72.02221542 35.52887737 76.94719122 23.03318819 81.66015625 10.44140625 C82.27310547 8.82685547 82.27310547 8.82685547 82.8984375 7.1796875 C83.25599121 6.22819824 83.61354492 5.27670898 83.98193359 4.29638672 C85 2 85 2 87 0 C93.00458716 -0.54587156 93.00458716 -0.54587156 95.9375 1.0625 C97.97403899 4.77618874 97.41844523 8.53898905 96.29263306 12.4697876 C95.25927494 15.39301881 94.15439037 18.27871022 93.01953125 21.1640625 C92.60966476 22.23312836 92.19979828 23.30219421 91.7775116 24.40365601 C90.46672772 27.81508434 89.13992717 31.22001794 87.8125 34.625 C86.93838385 36.89151499 86.0653262 39.15843851 85.19335938 41.42578125 C83.5324699 45.74107056 81.86142533 50.05219469 80.18212891 54.36035156 C78.88250806 57.70072745 77.60414174 61.04561345 76.37646484 64.41308594 C75.94672363 65.58387695 75.51698242 66.75466797 75.07421875 67.9609375 C74.56314575 69.39252197 74.56314575 69.39252197 74.04174805 70.85302734 C73 73 73 73 70 75 C67.0625 75.4375 67.0625 75.4375 64 75 C59.72083225 70.80716633 58.09328148 65.61599317 56.109375 60.10546875 C55.75989807 59.15811356 55.41042114 58.21075836 55.050354 57.23469543 C53.94133553 54.22214358 52.84551816 51.20498407 51.75 48.1875 C50.99826318 46.13835348 50.24566844 44.08952147 49.4921875 42.04101562 C47.65150493 37.03094431 45.82162359 32.01703024 44 27 C41.35396065 32.81647762 38.90887713 38.67086836 36.65234375 44.6484375 C36.04134978 46.24622157 35.43001189 47.84387416 34.81835938 49.44140625 C33.87129326 51.92199381 32.92674945 54.40344514 31.98803711 56.88720703 C31.07083883 59.31043396 30.14366438 61.72964592 29.21484375 64.1484375 C28.93664291 64.89217621 28.65844208 65.63591492 28.37181091 66.40219116 C25.81262785 73.02611232 25.81262785 73.02611232 23 75 C20.0625 75.5 20.0625 75.5 17 75 C12.24458974 70.51098559 10.54094709 64.18744619 8.33984375 58.19921875 C7.90869766 57.0488765 7.47755157 55.89853424 7.03334045 54.71333313 C5.65932433 51.04124785 4.29824556 47.36452085 2.9375 43.6875 C2.01843084 41.22429104 1.09851804 38.76139669 0.17773438 36.29882812 C-1.88496622 30.7774706 -3.94083047 25.25365611 -5.98440552 19.72518921 C-6.62470064 18.00705722 -7.27351097 16.29205195 -7.93429565 14.58169556 C-9.50124595 10.52371094 -10.61144265 7.38200567 -10 3 C-7.7229324 -1.01835458 -4.20638468 -0.664166 0 0 Z " fill="#FFFFFF" transform="translate(273,134)"/>
<path d="M0 0 C2.44921875 2.0625 2.44921875 2.0625 4.6875 5 C5.31132568 5.79990356 5.31132568 5.79990356 5.94775391 6.6159668 C7.32301098 8.39333543 8.66275523 10.1938941 10 12 C10.96147959 13.27791591 11.92373512 14.55524834 12.88671875 15.83203125 C14.38913883 17.82966241 15.8877926 19.82973696 17.37744141 21.83691406 C21.93845361 27.9760042 26.6973395 33.94297238 31.50390625 39.890625 C33.38400873 42.2326619 35.20760175 44.59190237 37 47 C37.01458252 45.71834961 37.02916504 44.43669922 37.04418945 43.11621094 C37.1021732 38.35990535 37.17940633 33.60407315 37.26245117 28.84814453 C37.29570011 26.78995447 37.32373214 24.73167324 37.34643555 22.67333984 C37.3799819 19.71412309 37.43229802 16.75574183 37.48828125 13.796875 C37.49786613 12.41698395 37.49786613 12.41698395 37.50764465 11.00921631 C37.65315832 4.68272163 37.65315832 4.68272163 39.31323242 1.41503906 C41 0 41 0 44.5 -0.4375 C48 0 48 0 49.6934967 1.11315918 C51.64278557 3.92830539 51.38887284 6.22722206 51.40405273 9.62695312 C51.41091599 10.2955687 51.41777924 10.96418427 51.42485046 11.65306091 C51.44314875 13.86267341 51.43927743 16.07157802 51.43359375 18.28125 C51.43815379 19.81677482 51.44345884 21.35229759 51.44947815 22.88781738 C51.4584149 26.10579725 51.45597948 29.32352901 51.44604492 32.54150391 C51.43454807 36.66785626 51.45477384 40.79335378 51.48396206 44.91959381 C51.502296 48.09032643 51.5020374 51.26085306 51.49632454 54.43162537 C51.49617101 55.95309143 51.50224134 57.47457119 51.51461601 58.99598694 C51.52947435 61.12222158 51.51889037 63.24686257 51.50170898 65.37304688 C51.50154282 66.58311401 51.50137665 67.79318115 51.50120544 69.03991699 C51 72 51 72 49.18080139 73.90808105 C45.71052734 75.64563405 43.66385412 75.11543121 40 74 C37.70963 72.09447805 36.05403819 69.84202377 34.3125 67.4375 C33.80267578 66.76783203 33.29285156 66.09816406 32.76757812 65.40820312 C31.15873362 63.28610762 29.57830398 61.14487464 28 59 C26.49157899 56.98344872 24.97869813 54.97030065 23.46557617 52.95727539 C22.54259869 51.72463996 21.62412992 50.48860293 20.7121582 49.24780273 C15.35722032 41.99805572 9.64938647 35.02059678 4 28 C3.9906543 29.28165039 3.98130859 30.56330078 3.97167969 31.88378906 C3.93179939 36.64016442 3.86604585 41.39589162 3.79248047 46.15185547 C3.76425951 48.21003898 3.74305059 50.2683311 3.72900391 52.32666016 C3.7075901 55.28604785 3.66094779 58.2441282 3.609375 61.203125 C3.60753204 62.58301605 3.60753204 62.58301605 3.60565186 63.99078369 C3.45979749 70.35638078 3.45979749 70.35638078 1.15332031 73.58496094 C-1.76715431 75.50412997 -3.57432713 75.5102066 -7 75 C-8.65933228 73.88684082 -8.65933228 73.88684082 -10 72 C-10.38095093 69.03991699 -10.38095093 69.03991699 -10.38818359 65.37304688 C-10.39344055 64.7044313 -10.39869751 64.03581573 -10.40411377 63.34693909 C-10.41731525 61.13730493 -10.40857581 58.92839146 -10.3984375 56.71875 C-10.40045821 55.18322613 -10.40336962 53.6477032 -10.40713501 52.11218262 C-10.41155854 48.89419415 -10.40512659 45.67645552 -10.39111328 42.45849609 C-10.37402111 38.33226384 -10.38386218 34.20661696 -10.40183067 30.08040619 C-10.41266788 26.90968408 -10.40922252 23.73910091 -10.4014473 20.56837463 C-10.3994451 19.04692007 -10.40190526 17.52545293 -10.40888596 16.00401306 C-10.41649972 13.87798622 -10.40489882 11.75290917 -10.38818359 9.62695312 C-10.38579681 8.41688599 -10.38341003 7.20681885 -10.38095093 5.96008301 C-10 3 -10 3 -8.68789673 1.11706543 C-5.74495837 -0.83059798 -3.4049604 -0.47219386 0 0 Z " fill="#FFFFFF" transform="translate(149,134)"/>
<path d="M0 0 C1.27718399 -0.00642769 1.27718399 -0.00642769 2.58016968 -0.01298523 C4.37374992 -0.01871167 6.16735339 -0.01924125 7.9609375 -0.01489258 C10.70873256 -0.01172129 13.45546202 -0.03525109 16.203125 -0.06054688 C17.94791531 -0.06281887 19.69270851 -0.06352383 21.4375 -0.0625 C22.25940826 -0.07170975 23.08131653 -0.08091949 23.9281311 -0.09040833 C29.63336847 -0.04392132 29.63336847 -0.04392132 31.79867554 1.6053009 C33.95366682 4.44368615 33.51298754 6.88438092 33.0859375 10.30078125 C30.62385905 13.05163175 29.09841115 13.29958959 25.390625 13.65380859 C23.91407122 13.66143768 22.43739887 13.6549143 20.9609375 13.63671875 C19.35155844 13.64922741 17.74218341 13.66226436 16.1328125 13.67578125 C13.60467324 13.6797161 11.07692993 13.67572924 8.54882812 13.66113281 C6.10226453 13.65256508 3.6573554 13.67423285 1.2109375 13.69921875 C0.4566748 13.68587494 -0.29758789 13.67253113 -1.07470703 13.65878296 C-4.90803845 13.71274511 -6.56513319 13.97074083 -9.39453125 16.64697266 C-11.2423598 19.87414108 -11.45986339 21.63611815 -10.9140625 25.30078125 C-9.13421845 28.43669695 -8.39098043 29.14180861 -4.9140625 30.30078125 C-3.30815873 30.4027852 -1.69884582 30.45548917 -0.08984375 30.4765625 C0.85697266 30.50041016 1.80378906 30.52425781 2.77929688 30.54882812 C4.75564854 30.5913719 6.73227329 30.62285047 8.70898438 30.64257812 C16.22077628 30.8609737 21.50725595 32.33309411 27.328125 37.16015625 C32.48306377 43.12903271 34.47013127 47.95737795 33.9609375 55.86328125 C32.87235244 63.06278698 29.4224809 67.41716561 23.96484375 72.0390625 C18.83676135 75.48266045 14.15225449 75.60822692 8.171875 75.6015625 C6.89469101 75.60799019 6.89469101 75.60799019 5.59170532 75.61454773 C3.79812508 75.62027417 2.00452161 75.62080375 0.2109375 75.61645508 C-2.53685756 75.61328379 -5.28358702 75.63681359 -8.03125 75.66210938 C-9.77604031 75.66438137 -11.52083351 75.66508633 -13.265625 75.6640625 C-14.08753326 75.67327225 -14.90944153 75.68248199 -15.7562561 75.69197083 C-21.47349497 75.64538603 -21.47349497 75.64538603 -23.62680054 73.96110535 C-24.9140625 72.30078125 -24.9140625 72.30078125 -25.3515625 69.36328125 C-24.9140625 66.30078125 -24.9140625 66.30078125 -23.38085938 64.14526367 C-20.02439516 61.63555591 -17.04059459 61.71605411 -13.0078125 61.7265625 C-12.24609741 61.71239792 -11.48438232 61.69823334 -10.69958496 61.68363953 C-8.27093353 61.64179464 -5.8430233 61.62651613 -3.4140625 61.61328125 C-0.98544814 61.58416867 1.44298113 61.5495512 3.87145996 61.51078796 C5.38057082 61.48841148 6.88979551 61.47252491 8.39904785 61.46394348 C11.76513169 61.42950261 14.86678371 61.34617117 18.0859375 60.30078125 C19.84804825 54.65975752 19.84804825 54.65975752 19.4609375 48.86328125 C18.39168309 46.18557197 18.39168309 46.18557197 16.29394531 45.65380859 C13.96529095 45.28149167 11.74050967 45.14109804 9.3828125 45.08984375 C8.48433594 45.06148437 7.58585937 45.033125 6.66015625 45.00390625 C4.79315819 44.95226038 2.92594404 44.90786295 1.05859375 44.87109375 C-7.64332982 44.57316769 -14.67050461 42.82813723 -20.9140625 36.30078125 C-24.97936908 30.0386941 -25.96787685 23.64488951 -24.9140625 16.30078125 C-23.11360959 10.1217121 -19.25765536 5.78911422 -13.9140625 2.30078125 C-9.30411599 -0.0661933 -5.06093753 -0.00563981 0 0 Z " fill="#FFFFFF" transform="translate(401.9140625,133.69921875)"/>
<path d="M0 0 C0.81130875 -0.0033284 1.62261749 -0.0066568 2.45851135 -0.01008606 C4.17586703 -0.01515255 5.89323256 -0.01749447 7.6105957 -0.01733398 C10.23991089 -0.01951962 12.86880601 -0.03767561 15.49804688 -0.05664062 C17.16536315 -0.05957475 18.83268141 -0.06155942 20.5 -0.0625 C21.6813578 -0.07327827 21.6813578 -0.07327827 22.88658142 -0.08427429 C26.72945315 -0.06816842 28.54241202 -0.01469407 31.81640625 2.16796875 C32.69140625 4.48046875 32.69140625 4.48046875 32.81640625 7.16796875 C30.6223764 11.76498368 30.6223764 11.76498368 27.81640625 13.16796875 C25.78407991 13.25324503 23.74893619 13.2751301 21.71484375 13.265625 C20.503125 13.26240234 19.29140625 13.25917969 18.04296875 13.25585938 C16.77195313 13.24748047 15.5009375 13.23910156 14.19140625 13.23046875 C12.91265625 13.22595703 11.63390625 13.22144531 10.31640625 13.21679688 C7.1497198 13.20498088 3.98305729 13.18704496 0.81640625 13.16796875 C0.81640625 19.10796875 0.81640625 25.04796875 0.81640625 31.16796875 C2.80285156 31.13316406 4.78929687 31.09835938 6.8359375 31.0625 C8.7621142 31.04163888 10.68829371 31.02088446 12.61450195 31.00317383 C14.60968326 30.98068542 16.60466838 30.94256677 18.59960938 30.90429688 C19.85322266 30.89462891 21.10683594 30.88496094 22.3984375 30.875 C23.55577393 30.85928955 24.71311035 30.8435791 25.90551758 30.82739258 C28.81640625 31.16796875 28.81640625 31.16796875 30.65893555 32.5378418 C32.2926797 34.83872973 32.74894586 36.33463254 32.81640625 39.16796875 C31.22753906 41.80151367 31.22753906 41.80151367 28.81640625 44.16796875 C25.79199219 44.7355957 25.79199219 44.7355957 22.30078125 44.65625 C21.05039063 44.64013672 19.8 44.62402344 18.51171875 44.60742188 C17.20976562 44.56552734 15.9078125 44.52363281 14.56640625 44.48046875 C12.59027344 44.44663086 12.59027344 44.44663086 10.57421875 44.41210938 C7.32113044 44.35317662 4.06862563 44.26349739 0.81640625 44.16796875 C0.81640625 50.10796875 0.81640625 56.04796875 0.81640625 62.16796875 C2.70746094 62.10996094 4.59851563 62.05195313 6.546875 61.9921875 C9.03252741 61.9452884 11.51820651 61.89978841 14.00390625 61.85546875 C15.24978516 61.81357422 16.49566406 61.77167969 17.77929688 61.72851562 C28.08620034 61.59035338 28.08620034 61.59035338 31.1796875 64.5234375 C32.81640625 67.16796875 32.81640625 67.16796875 32.81640625 69.79296875 C31.6916733 72.4642095 31.18629485 73.49945827 28.81640625 75.16796875 C25.98123807 75.46626927 23.37027701 75.5883543 20.53515625 75.56640625 C19.32031555 75.57071152 19.32031555 75.57071152 18.08093262 75.57510376 C16.36954041 75.57714417 14.65812487 75.57161584 12.94677734 75.55908203 C10.32596735 75.54302732 7.70669948 75.55893069 5.0859375 75.578125 C3.42317368 75.57614256 1.76041081 75.57229888 0.09765625 75.56640625 C-0.68677856 75.57247894 -1.47121338 75.57855164 -2.27941895 75.58480835 C-7.67631839 75.51497855 -7.67631839 75.51497855 -10.13867188 73.83056641 C-12.35407684 70.30558795 -12.31479505 67.17219709 -12.32885742 63.12353516 C-12.33523727 61.87859283 -12.34161713 60.63365051 -12.34819031 59.35098267 C-12.34971914 57.99049926 -12.35083302 56.63001532 -12.3515625 55.26953125 C-12.35477641 53.87332118 -12.35814058 52.47711146 -12.36164856 51.0809021 C-12.36763606 48.15386169 -12.36948887 45.22685079 -12.36889648 42.29980469 C-12.36879494 38.55503454 -12.38244107 34.81045431 -12.39966869 31.06572914 C-12.41080559 28.18147925 -12.41281517 25.29727502 -12.41228676 22.41300583 C-12.41346456 21.0327527 -12.41787512 19.6524983 -12.42561913 18.27226639 C-12.4354516 16.3385997 -12.43126832 14.40487724 -12.42651367 12.47119141 C-12.42793869 11.37215485 -12.42936371 10.27311829 -12.43083191 9.14077759 C-12.17568917 6.07292348 -11.58263572 3.90165286 -10.18359375 1.16796875 C-6.98520457 -0.43122584 -3.51306017 0.00495116 0 0 Z " fill="#FFFFFF" transform="translate(222.18359375,133.83203125)"/>
<path d="M0 0 C1.20301254 -0.00990463 2.40602509 -0.01980927 3.64549255 -0.03001404 C4.98050028 -0.02577582 6.31550703 -0.02121795 7.6505127 -0.01637268 C9.05494226 -0.02207421 10.4593672 -0.02903763 11.86378479 -0.03717041 C15.67986918 -0.05514003 19.49572412 -0.05392652 23.31183815 -0.04822803 C26.49542832 -0.04514201 29.67897404 -0.05122198 32.86255789 -0.05726677 C40.37117795 -0.07132252 47.87968426 -0.06974168 55.38830566 -0.05836487 C63.14044311 -0.04687882 70.8922348 -0.0609649 78.64432669 -0.08776134 C85.29578388 -0.10989431 91.94713234 -0.11656129 98.59862375 -0.11068493 C102.5731932 -0.1073088 106.54754091 -0.10977375 110.52207947 -0.12693596 C114.25847823 -0.14236529 117.99436333 -0.13849498 121.7307415 -0.11963081 C123.10338172 -0.11593387 124.47605967 -0.11908554 125.84866524 -0.1295166 C127.71946553 -0.14265028 129.59039775 -0.12881829 131.46118164 -0.11352539 C132.50905098 -0.11331611 133.55692032 -0.11310682 134.63654327 -0.1128912 C137.23059082 0.38768005 137.23059082 0.38768005 139.09899139 2.19244289 C140.81395116 5.51936523 140.14791272 7.84943842 139.23059082 11.38768005 C135.80426287 13.67189868 134.57235742 13.64036149 130.5438385 13.64837646 C129.35909943 13.65546127 128.17436035 13.66254608 126.95372009 13.66984558 C125.65233597 13.66736816 124.35095184 13.66489075 123.01013184 13.66233826 C121.6270317 13.66668501 120.24393398 13.67186804 118.86083984 13.67782593 C115.10257724 13.69123128 111.3444151 13.6917929 107.58613324 13.68926263 C104.44986723 13.68819394 101.31362164 13.69307367 98.17736 13.69786805 C90.77899111 13.70896858 83.38067299 13.7093976 75.9822998 13.70335388 C68.34725648 13.69731277 60.71239738 13.70962725 53.07738549 13.73092395 C46.52443852 13.74853101 39.97155023 13.75454273 33.41858047 13.75128621 C29.50381618 13.74947174 25.58918329 13.75212565 21.67444038 13.76600075 C17.99311124 13.77855997 14.31206957 13.77665331 10.63074493 13.76358986 C8.63481907 13.76008986 6.63888451 13.77141611 4.64299011 13.78315735 C3.45543121 13.77614304 2.26787231 13.76912872 1.04432678 13.76190186 C0.01212792 13.7620696 -1.02007093 13.76223734 -2.08354855 13.76241016 C-5.1953813 13.32824861 -6.57699521 12.6214339 -8.76940918 10.38768005 C-9.50996694 4.46321794 -9.50996694 4.46321794 -7.6026535 1.69316006 C-5.01762331 -0.14767762 -3.15929354 0.00732606 0 0 Z " fill="#FFFFFF" transform="translate(300.7694091796875,356.61231994628906)"/>
<path d="M0 0 C1.20301254 -0.00990463 2.40602509 -0.01980927 3.64549255 -0.03001404 C4.98050028 -0.02577582 6.31550703 -0.02121795 7.6505127 -0.01637268 C9.05494226 -0.02207421 10.4593672 -0.02903763 11.86378479 -0.03717041 C15.67986918 -0.05514003 19.49572412 -0.05392652 23.31183815 -0.04822803 C26.49542832 -0.04514201 29.67897404 -0.05122198 32.86255789 -0.05726677 C40.37117795 -0.07132252 47.87968426 -0.06974168 55.38830566 -0.05836487 C63.14044311 -0.04687882 70.8922348 -0.0609649 78.64432669 -0.08776134 C85.29578388 -0.10989431 91.94713234 -0.11656129 98.59862375 -0.11068493 C102.5731932 -0.1073088 106.54754091 -0.10977375 110.52207947 -0.12693596 C114.25847823 -0.14236529 117.99436333 -0.13849498 121.7307415 -0.11963081 C123.10338172 -0.11593387 124.47605967 -0.11908554 125.84866524 -0.1295166 C127.71946553 -0.14265028 129.59039775 -0.12881829 131.46118164 -0.11352539 C132.50905098 -0.11331611 133.55692032 -0.11310682 134.63654327 -0.1128912 C137.23059082 0.38768005 137.23059082 0.38768005 139.09899139 2.19244289 C140.81395116 5.51936523 140.14791272 7.84943842 139.23059082 11.38768005 C135.80426287 13.67189868 134.57235742 13.64036149 130.5438385 13.64837646 C129.35909943 13.65546127 128.17436035 13.66254608 126.95372009 13.66984558 C125.65233597 13.66736816 124.35095184 13.66489075 123.01013184 13.66233826 C121.6270317 13.66668501 120.24393398 13.67186804 118.86083984 13.67782593 C115.10257724 13.69123128 111.3444151 13.6917929 107.58613324 13.68926263 C104.44986723 13.68819394 101.31362164 13.69307367 98.17736 13.69786805 C90.77899111 13.70896858 83.38067299 13.7093976 75.9822998 13.70335388 C68.34725648 13.69731277 60.71239738 13.70962725 53.07738549 13.73092395 C46.52443852 13.74853101 39.97155023 13.75454273 33.41858047 13.75128621 C29.50381618 13.74947174 25.58918329 13.75212565 21.67444038 13.76600075 C17.99311124 13.77855997 14.31206957 13.77665331 10.63074493 13.76358986 C8.63481907 13.76008986 6.63888451 13.77141611 4.64299011 13.78315735 C3.45543121 13.77614304 2.26787231 13.76912872 1.04432678 13.76190186 C0.01212792 13.7620696 -1.02007093 13.76223734 -2.08354855 13.76241016 C-5.1953813 13.32824861 -6.57699521 12.6214339 -8.76940918 10.38768005 C-9.50996694 4.46321794 -9.50996694 4.46321794 -7.6026535 1.69316006 C-5.01762331 -0.14767762 -3.15929354 0.00732606 0 0 Z " fill="#FFFFFF" transform="translate(300.7694091796875,319.61231994628906)"/>
<path d="M0 0 C1.20301254 -0.00990463 2.40602509 -0.01980927 3.64549255 -0.03001404 C4.98050028 -0.02577582 6.31550703 -0.02121795 7.6505127 -0.01637268 C9.05494226 -0.02207421 10.4593672 -0.02903763 11.86378479 -0.03717041 C15.67986918 -0.05514003 19.49572412 -0.05392652 23.31183815 -0.04822803 C26.49542832 -0.04514201 29.67897404 -0.05122198 32.86255789 -0.05726677 C40.37117795 -0.07132252 47.87968426 -0.06974168 55.38830566 -0.05836487 C63.14044311 -0.04687882 70.8922348 -0.0609649 78.64432669 -0.08776134 C85.29578388 -0.10989431 91.94713234 -0.11656129 98.59862375 -0.11068493 C102.5731932 -0.1073088 106.54754091 -0.10977375 110.52207947 -0.12693596 C114.25847823 -0.14236529 117.99436333 -0.13849498 121.7307415 -0.11963081 C123.10338172 -0.11593387 124.47605967 -0.11908554 125.84866524 -0.1295166 C127.71946553 -0.14265028 129.59039775 -0.12881829 131.46118164 -0.11352539 C132.50905098 -0.11331611 133.55692032 -0.11310682 134.63654327 -0.1128912 C137.23059082 0.38768005 137.23059082 0.38768005 139.09899139 2.19244289 C140.81395116 5.51936523 140.14791272 7.84943842 139.23059082 11.38768005 C135.80426287 13.67189868 134.57235742 13.64036149 130.5438385 13.64837646 C129.35909943 13.65546127 128.17436035 13.66254608 126.95372009 13.66984558 C125.65233597 13.66736816 124.35095184 13.66489075 123.01013184 13.66233826 C121.6270317 13.66668501 120.24393398 13.67186804 118.86083984 13.67782593 C115.10257724 13.69123128 111.3444151 13.6917929 107.58613324 13.68926263 C104.44986723 13.68819394 101.31362164 13.69307367 98.17736 13.69786805 C90.77899111 13.70896858 83.38067299 13.7093976 75.9822998 13.70335388 C68.34725648 13.69731277 60.71239738 13.70962725 53.07738549 13.73092395 C46.52443852 13.74853101 39.97155023 13.75454273 33.41858047 13.75128621 C29.50381618 13.74947174 25.58918329 13.75212565 21.67444038 13.76600075 C17.99311124 13.77855997 14.31206957 13.77665331 10.63074493 13.76358986 C8.63481907 13.76008986 6.63888451 13.77141611 4.64299011 13.78315735 C3.45543121 13.77614304 2.26787231 13.76912872 1.04432678 13.76190186 C0.01212792 13.7620696 -1.02007093 13.76223734 -2.08354855 13.76241016 C-5.1953813 13.32824861 -6.57699521 12.6214339 -8.76940918 10.38768005 C-9.50996694 4.46321794 -9.50996694 4.46321794 -7.6026535 1.69316006 C-5.01762331 -0.14767762 -3.15929354 0.00732606 0 0 Z " fill="#FFFFFF" transform="translate(300.7694091796875,282.61231994628906)"/>
<path d="M0 0 C1.20301254 -0.00990463 2.40602509 -0.01980927 3.64549255 -0.03001404 C4.98050028 -0.02577582 6.31550703 -0.02121795 7.6505127 -0.01637268 C9.05494226 -0.02207421 10.4593672 -0.02903763 11.86378479 -0.03717041 C15.67986918 -0.05514003 19.49572412 -0.05392652 23.31183815 -0.04822803 C26.49542832 -0.04514201 29.67897404 -0.05122198 32.86255789 -0.05726677 C40.37117795 -0.07132252 47.87968426 -0.06974168 55.38830566 -0.05836487 C63.14044311 -0.04687882 70.8922348 -0.0609649 78.64432669 -0.08776134 C85.29578388 -0.10989431 91.94713234 -0.11656129 98.59862375 -0.11068493 C102.5731932 -0.1073088 106.54754091 -0.10977375 110.52207947 -0.12693596 C114.25847823 -0.14236529 117.99436333 -0.13849498 121.7307415 -0.11963081 C123.10338172 -0.11593387 124.47605967 -0.11908554 125.84866524 -0.1295166 C127.71946553 -0.14265028 129.59039775 -0.12881829 131.46118164 -0.11352539 C132.50905098 -0.11331611 133.55692032 -0.11310682 134.63654327 -0.1128912 C137.23059082 0.38768005 137.23059082 0.38768005 139.09899139 2.19244289 C140.81395116 5.51936523 140.14791272 7.84943842 139.23059082 11.38768005 C135.80426287 13.67189868 134.57235742 13.64036149 130.5438385 13.64837646 C129.35909943 13.65546127 128.17436035 13.66254608 126.95372009 13.66984558 C125.65233597 13.66736816 124.35095184 13.66489075 123.01013184 13.66233826 C121.6270317 13.66668501 120.24393398 13.67186804 118.86083984 13.67782593 C115.10257724 13.69123128 111.3444151 13.6917929 107.58613324 13.68926263 C104.44986723 13.68819394 101.31362164 13.69307367 98.17736 13.69786805 C90.77899111 13.70896858 83.38067299 13.7093976 75.9822998 13.70335388 C68.34725648 13.69731277 60.71239738 13.70962725 53.07738549 13.73092395 C46.52443852 13.74853101 39.97155023 13.75454273 33.41858047 13.75128621 C29.50381618 13.74947174 25.58918329 13.75212565 21.67444038 13.76600075 C17.99311124 13.77855997 14.31206957 13.77665331 10.63074493 13.76358986 C8.63481907 13.76008986 6.63888451 13.77141611 4.64299011 13.78315735 C3.45543121 13.77614304 2.26787231 13.76912872 1.04432678 13.76190186 C0.01212792 13.7620696 -1.02007093 13.76223734 -2.08354855 13.76241016 C-5.1953813 13.32824861 -6.57699521 12.6214339 -8.76940918 10.38768005 C-9.50996694 4.46321794 -9.50996694 4.46321794 -7.6026535 1.69316006 C-5.01762331 -0.14767762 -3.15929354 0.00732606 0 0 Z " fill="#FFFFFF" transform="translate(300.7694091796875,245.61231994628906)"/>
</svg>
